<?xml version="1.0"?>
<Project_Data Version="8.00">
<Project_Settings>
<ProfileName>MP4 only (up to 1080p)</ProfileName>
<ProjectWidth>1350</ProjectWidth>
<ProjectHeight>720</ProjectHeight>
<IsCustomProject>1</IsCustomProject>
<SavedProjectSettings>1</SavedProjectSettings>
<LastFlashTemplate>-1</LastFlashTemplate>
</Project_Settings>


<AutoSaveFile>C:\Users\Yudong\AppData\Local\TechSmith\Camtasia Studio\8.0\Auto-Saves\cen5011-video15a3697d.autosave.camproj</AutoSaveFile>

<ProjectID>60B7C689-A43C-4EEF-9ACF-C0A264F3743F</ProjectID>

<PowerPointProject>0</PowerPointProject>

<PowerPointFilename></PowerPointFilename>


<Project_Notes>
</Project_Notes>

<Project_MetaData>
<Project_MetaData_Object>
<FieldArrayKey>8</FieldArrayKey>
<Value>cen5011-video</Value>
</Project_MetaData_Object>
<Project_MetaData_Object>
<FieldArrayKey>13</FieldArrayKey>
<Value>2014-10-27 07:57:25 PM</Value>
</Project_MetaData_Object>
<Project_MetaData_Object>
<FieldArrayKey>16</FieldArrayKey>
<Value>ENU</Value>
</Project_MetaData_Object>
</Project_MetaData>

<CSMLData>
<GoProject id="1" version="3.0" >
 <Project id="2" editRate="30/1" version="3.0" >
  <Author></Author>
  <Comment></Comment>
  <System></System>
  <SourceBin id="3"  >
    <Source id="4" src="C:\Users\Yudong\Desktop\capture-2.trec" lastMod="20141027T235102" rect="(0,0,1364,728)" >
      <SourceTrack range="(0,1486)" type="0" editRate="30/1" trackRect="(0,0,1364,728)" sampleRate="0/1" bitDepth="0" numChannels="0" filename="capture-2.trec!Strack0.tsc2" metaData="capture-2.trec;" />
      <SourceTrack range="(0,2184192)" type="2" editRate="44100/1" trackRect="(0,0,0,0)" sampleRate="44100/1" bitDepth="16" numChannels="2" filename="capture-2.trec!Maudio1.mp4" metaData="" />
      <SourceTrack range="(0,2162688)" type="2" editRate="44100/1" trackRect="(0,0,0,0)" sampleRate="44100/1" bitDepth="16" numChannels="2" filename="capture-2.trec!$audio2.mp4" metaData="" />
    </Source>
    <Source id="5" src="C:\Users\Yudong\Desktop\capture-1.trec" lastMod="20141027T234616" rect="(0,0,1364,728)" >
      <SourceTrack range="(0,1152)" type="0" editRate="30/1" trackRect="(0,0,1364,728)" sampleRate="0/1" bitDepth="0" numChannels="0" filename="capture-1.trec!Strack0.tsc2" metaData="capture-1.trec;" />
      <SourceTrack range="(0,1677312)" type="2" editRate="44100/1" trackRect="(0,0,0,0)" sampleRate="44100/1" bitDepth="16" numChannels="2" filename="capture-1.trec!Maudio1.mp4" metaData="" />
      <SourceTrack range="(0,1677312)" type="2" editRate="44100/1" trackRect="(0,0,0,0)" sampleRate="44100/1" bitDepth="16" numChannels="2" filename="capture-1.trec!$audio2.mp4" metaData="" />
    </Source>
    <Source id="6" src="C:\Users\Yudong\Desktop\capture-3.trec" lastMod="20141028T000220" rect="(0,0,1364,728)" >
      <SourceTrack range="(0,2460)" type="0" editRate="30/1" trackRect="(0,0,1364,728)" sampleRate="0/1" bitDepth="0" numChannels="0" filename="capture-3.trec!Strack0.tsc2" metaData="capture-3.trec;" />
      <SourceTrack range="(0,3617792)" type="2" editRate="44100/1" trackRect="(0,0,0,0)" sampleRate="44100/1" bitDepth="16" numChannels="2" filename="capture-3.trec!Maudio1.mp4" metaData="" />
      <SourceTrack range="(0,3573760)" type="2" editRate="44100/1" trackRect="(0,0,0,0)" sampleRate="44100/1" bitDepth="16" numChannels="2" filename="capture-3.trec!$audio2.mp4" metaData="" />
    </Source>
    <Source id="7" src="C:\Users\Yudong\Desktop\capture-4.trec" lastMod="20141028T003647" rect="(0,0,1364,728)" >
      <SourceTrack range="(0,832)" type="0" editRate="30/1" trackRect="(0,0,1364,728)" sampleRate="0/1" bitDepth="0" numChannels="0" filename="capture-4.trec!Strack0.tsc2" metaData="capture-4.trec;" />
      <SourceTrack range="(0,1214464)" type="2" editRate="44100/1" trackRect="(0,0,0,0)" sampleRate="44100/1" bitDepth="16" numChannels="2" filename="capture-4.trec!Maudio1.mp4" metaData="" />
      <SourceTrack range="(0,1191936)" type="2" editRate="44100/1" trackRect="(0,0,0,0)" sampleRate="44100/1" bitDepth="16" numChannels="2" filename="capture-4.trec!$audio2.mp4" metaData="" />
    </Source>
    <Source id="8" src="C:\Users\Yudong\Desktop\capture-5.trec" lastMod="20141028T010820" rect="(0,0,1364,728)" >
      <SourceTrack range="(0,3354)" type="0" editRate="30/1" trackRect="(0,0,1364,728)" sampleRate="0/1" bitDepth="0" numChannels="0" filename="capture-5.trec!Strack0.tsc2" metaData="capture-5.trec;" />
      <SourceTrack range="(0,4918272)" type="2" editRate="44100/1" trackRect="(0,0,0,0)" sampleRate="44100/1" bitDepth="16" numChannels="2" filename="capture-5.trec!Maudio1.mp4" metaData="" />
      <SourceTrack range="(0,4896768)" type="2" editRate="44100/1" trackRect="(0,0,0,0)" sampleRate="44100/1" bitDepth="16" numChannels="2" filename="capture-5.trec!$audio2.mp4" metaData="" />
    </Source>
    <Source id="9" src="C:\Users\Yudong\Desktop\capture-6.trec" lastMod="20141028T015242" rect="(0,0,1364,728)" >
      <SourceTrack range="(0,6779)" type="0" editRate="30/1" trackRect="(0,0,1364,728)" sampleRate="0/1" bitDepth="0" numChannels="0" filename="capture-6.trec!Strack0.tsc2" metaData="capture-6.trec;" />
      <SourceTrack range="(0,9968640)" type="2" editRate="44100/1" trackRect="(0,0,0,0)" sampleRate="44100/1" bitDepth="16" numChannels="2" filename="capture-6.trec!Maudio1.mp4" metaData="" />
      <SourceTrack range="(0,9923584)" type="2" editRate="44100/1" trackRect="(0,0,0,0)" sampleRate="44100/1" bitDepth="16" numChannels="2" filename="capture-6.trec!$audio2.mp4" metaData="" />
    </Source>
    <Source id="10" src="C:\Users\Yudong\Desktop\capture-7.trec" lastMod="20141028T021118" rect="(0,0,1364,728)" >
      <SourceTrack range="(0,3429)" type="0" editRate="30/1" trackRect="(0,0,1364,728)" sampleRate="0/1" bitDepth="0" numChannels="0" filename="capture-7.trec!Strack0.tsc2" metaData="capture-7.trec;" />
      <SourceTrack range="(0,5028864)" type="2" editRate="44100/1" trackRect="(0,0,0,0)" sampleRate="44100/1" bitDepth="16" numChannels="2" filename="capture-7.trec!Maudio1.mp4" metaData="" />
      <SourceTrack range="(0,5028864)" type="2" editRate="44100/1" trackRect="(0,0,0,0)" sampleRate="44100/1" bitDepth="16" numChannels="2" filename="capture-7.trec!$audio2.mp4" metaData="" />
    </Source>
    <Source id="11" src="C:\Users\Yudong\Desktop\capture-8.trec" lastMod="20141028T031058" rect="(0,0,1364,728)" >
      <SourceTrack range="(0,4630)" type="0" editRate="30/1" trackRect="(0,0,1364,728)" sampleRate="0/1" bitDepth="0" numChannels="0" filename="capture-8.trec!Strack0.tsc2" metaData="capture-8.trec;" />
      <SourceTrack range="(0,6793216)" type="2" editRate="44100/1" trackRect="(0,0,0,0)" sampleRate="44100/1" bitDepth="16" numChannels="2" filename="capture-8.trec!Maudio1.mp4" metaData="" />
      <SourceTrack range="(0,6793216)" type="2" editRate="44100/1" trackRect="(0,0,0,0)" sampleRate="44100/1" bitDepth="16" numChannels="2" filename="capture-8.trec!$audio2.mp4" metaData="" />
    </Source>
    <Source id="12" src="C:\Users\Yudong\Desktop\capture-9.trec" lastMod="20141028T031635" rect="(0,0,1364,728)" >
      <SourceTrack range="(0,2957)" type="0" editRate="30/1" trackRect="(0,0,1364,728)" sampleRate="0/1" bitDepth="0" numChannels="0" filename="capture-9.trec!Strack0.tsc2" metaData="capture-9.trec;" />
      <SourceTrack range="(0,4345856)" type="2" editRate="44100/1" trackRect="(0,0,0,0)" sampleRate="44100/1" bitDepth="16" numChannels="2" filename="capture-9.trec!Maudio1.mp4" metaData="" />
      <SourceTrack range="(0,4323328)" type="2" editRate="44100/1" trackRect="(0,0,0,0)" sampleRate="44100/1" bitDepth="16" numChannels="2" filename="capture-9.trec!$audio2.mp4" metaData="" />
    </Source>
    <Source id="13" src="C:\Users\Yudong\Desktop\capture-11.trec" lastMod="20141028T213637" rect="(0,0,1364,728)" >
      <SourceTrack range="(0,2698)" type="0" editRate="30/1" trackRect="(0,0,1364,728)" sampleRate="0/1" bitDepth="0" numChannels="0" filename="capture-11.trec!Strack0.tsc2" metaData="capture-11.trec;" />
      <SourceTrack range="(0,3948544)" type="2" editRate="44100/1" trackRect="(0,0,0,0)" sampleRate="44100/1" bitDepth="16" numChannels="2" filename="capture-11.trec!Maudio1.mp4" metaData="" />
      <SourceTrack range="(0,3926016)" type="2" editRate="44100/1" trackRect="(0,0,0,0)" sampleRate="44100/1" bitDepth="16" numChannels="2" filename="capture-11.trec!$audio2.mp4" metaData="" />
    </Source>
    <Source id="14" src="C:\Users\Yudong\Desktop\capture-12.trec" lastMod="20141028T214625" rect="(0,0,1364,728)" >
      <SourceTrack range="(0,2598)" type="0" editRate="30/1" trackRect="(0,0,1364,728)" sampleRate="0/1" bitDepth="0" numChannels="0" filename="capture-12.trec!Strack0.tsc2" metaData="capture-12.trec;" />
      <SourceTrack range="(0,3816448)" type="2" editRate="44100/1" trackRect="(0,0,0,0)" sampleRate="44100/1" bitDepth="16" numChannels="2" filename="capture-12.trec!Maudio1.mp4" metaData="" />
      <SourceTrack range="(0,3793920)" type="2" editRate="44100/1" trackRect="(0,0,0,0)" sampleRate="44100/1" bitDepth="16" numChannels="2" filename="capture-12.trec!$audio2.mp4" metaData="" />
    </Source>
    <Source id="15" src="C:\Users\Yudong\Desktop\capture-13.trec" lastMod="20141028T220432" rect="(0,0,1364,728)" >
      <SourceTrack range="(0,1735)" type="0" editRate="30/1" trackRect="(0,0,1364,728)" sampleRate="0/1" bitDepth="0" numChannels="0" filename="capture-13.trec!Strack0.tsc2" metaData="capture-13.trec;" />
      <SourceTrack range="(0,2537472)" type="2" editRate="44100/1" trackRect="(0,0,0,0)" sampleRate="44100/1" bitDepth="16" numChannels="2" filename="capture-13.trec!Maudio1.mp4" metaData="" />
      <SourceTrack range="(0,2514944)" type="2" editRate="44100/1" trackRect="(0,0,0,0)" sampleRate="44100/1" bitDepth="16" numChannels="2" filename="capture-13.trec!$audio2.mp4" metaData="" />
    </Source>
    <Source id="16" src="C:\Users\Yudong\Desktop\capture-14.trec" lastMod="20141028T222010" rect="(0,0,1364,728)" >
      <SourceTrack range="(0,2408)" type="0" editRate="30/1" trackRect="(0,0,1364,728)" sampleRate="0/1" bitDepth="0" numChannels="0" filename="capture-14.trec!Strack0.tsc2" metaData="capture-14.trec;" />
      <SourceTrack range="(0,3529728)" type="2" editRate="44100/1" trackRect="(0,0,0,0)" sampleRate="44100/1" bitDepth="16" numChannels="2" filename="capture-14.trec!Maudio1.mp4" metaData="" />
      <SourceTrack range="(0,3485696)" type="2" editRate="44100/1" trackRect="(0,0,0,0)" sampleRate="44100/1" bitDepth="16" numChannels="2" filename="capture-14.trec!$audio2.mp4" metaData="" />
    </Source>
  </SourceBin>
  <Timeline id="17"  >
   <Attributes>
    <Attribute id="18" value="1350" name="width"/>
    <Attribute id="19" value="720" name="height"/>
    <Attribute id="20" value="(0,0,0,255)" name="backgroundColor"/>
   </Attributes>
    <GenericMixer id="21"  name="Unified Mixer">
     <MetaData>
      <entry key="MixerType" val="TimelineMixer"/>
     </MetaData>
     <Tracks>
      <GenericTrack id="22"  >
       <Attributes>
        <Attribute id="23" value="" name="ident"/>
        <Attribute id="24" value="0" name="audioMuted"/>
        <Attribute id="25" value="0" name="videoHidden"/>
       </Attributes>
       <MetaData>
        <entry key="IsLocked" val="False"/>
        <entry key="WinTrackHeight" val="62"/>
       </MetaData>
       <Medias>
        <AMFile id="26" start="0" duration="1141" scalar="1/1" mediaStart="0/1" mediaDuration="1141/1" trackNumber="2" src="5" channelNumber="0,1" >
         <Parameters>
          <InterpolatingParam id="27" interp="linr"  time="0/1" value="1" leadInLength="0/1"  name="volume"/>
          <Parameter id="28"  name="captions"/>
         </Parameters>
         <Attributes>
          <Attribute id="29" value="" name="ident"/>
          <Attribute id="30" value="44100" name="sampleRate"/>
          <Attribute id="31" value="16" name="bitDepth"/>
          <Attribute id="32" value="1" name="gain"/>
          <Attribute id="33" value="0" name="mixToMono"/>
         </Attributes>
         <MetaData>
          <entry key="WinSubProjectDisplayName" val=""/>
         </MetaData>
        </AMFile>
        <AMFile id="34" start="1141" duration="1471" scalar="1/1" mediaStart="0/1" mediaDuration="1471/1" trackNumber="2" src="4" channelNumber="0,1" >
         <Parameters>
          <InterpolatingParam id="35" interp="linr"  time="0/1" value="1" leadInLength="0/1"  name="volume"/>
          <Parameter id="36"  name="captions"/>
         </Parameters>
         <Attributes>
          <Attribute id="37" value="" name="ident"/>
          <Attribute id="38" value="44100" name="sampleRate"/>
          <Attribute id="39" value="16" name="bitDepth"/>
          <Attribute id="40" value="1" name="gain"/>
          <Attribute id="41" value="0" name="mixToMono"/>
         </Attributes>
         <MetaData>
          <entry key="WinSubProjectDisplayName" val=""/>
         </MetaData>
        </AMFile>
        <AMFile id="42" start="2626" duration="2431" scalar="1/1" mediaStart="0/1" mediaDuration="2431/1" trackNumber="2" src="6" channelNumber="0,1" >
         <Parameters>
          <InterpolatingParam id="43" interp="linr"  time="0/1" value="1" leadInLength="0/1"  name="volume"/>
          <Parameter id="44"  name="captions"/>
         </Parameters>
         <Attributes>
          <Attribute id="45" value="" name="ident"/>
          <Attribute id="46" value="44100" name="sampleRate"/>
          <Attribute id="47" value="16" name="bitDepth"/>
          <Attribute id="48" value="1" name="gain"/>
          <Attribute id="49" value="0" name="mixToMono"/>
         </Attributes>
         <MetaData>
          <entry key="WinSubProjectDisplayName" val=""/>
         </MetaData>
        </AMFile>
        <AMFile id="50" start="5086" duration="810" scalar="1/1" mediaStart="0/1" mediaDuration="810/1" trackNumber="2" src="7" channelNumber="0,1" >
         <Parameters>
          <InterpolatingParam id="51" interp="linr"  time="0/1" value="1" leadInLength="0/1"  name="volume"/>
          <Parameter id="52"  name="captions"/>
         </Parameters>
         <Attributes>
          <Attribute id="53" value="" name="ident"/>
          <Attribute id="54" value="44100" name="sampleRate"/>
          <Attribute id="55" value="16" name="bitDepth"/>
          <Attribute id="56" value="1" name="gain"/>
          <Attribute id="57" value="0" name="mixToMono"/>
         </Attributes>
         <MetaData>
          <entry key="WinSubProjectDisplayName" val=""/>
         </MetaData>
        </AMFile>
        <AMFile id="58" start="5912" duration="3331" scalar="1/1" mediaStart="0/1" mediaDuration="3331/1" trackNumber="2" src="8" channelNumber="0,1" >
         <Parameters>
          <InterpolatingParam id="59" interp="linr"  time="0/1" value="1" leadInLength="0/1"  name="volume"/>
          <Parameter id="60"  name="captions"/>
         </Parameters>
         <Attributes>
          <Attribute id="61" value="" name="ident"/>
          <Attribute id="62" value="44100" name="sampleRate"/>
          <Attribute id="63" value="16" name="bitDepth"/>
          <Attribute id="64" value="1" name="gain"/>
          <Attribute id="65" value="0" name="mixToMono"/>
         </Attributes>
         <MetaData>
          <entry key="WinSubProjectDisplayName" val=""/>
         </MetaData>
        </AMFile>
        <AMFile id="66" start="9257" duration="6750" scalar="1/1" mediaStart="0/1" mediaDuration="6750/1" trackNumber="2" src="9" channelNumber="0,1" >
         <Parameters>
          <InterpolatingParam id="67" interp="linr"  time="0/1" value="1" leadInLength="0/1"  name="volume"/>
          <Parameter id="68"  name="captions"/>
         </Parameters>
         <Attributes>
          <Attribute id="69" value="" name="ident"/>
          <Attribute id="70" value="44100" name="sampleRate"/>
          <Attribute id="71" value="16" name="bitDepth"/>
          <Attribute id="72" value="1" name="gain"/>
          <Attribute id="73" value="0" name="mixToMono"/>
         </Attributes>
         <MetaData>
          <entry key="WinSubProjectDisplayName" val=""/>
         </MetaData>
        </AMFile>
        <AMFile id="74" start="16036" duration="3420" scalar="1/1" mediaStart="0/1" mediaDuration="3420/1" trackNumber="2" src="10" channelNumber="0,1" >
         <Parameters>
          <InterpolatingParam id="75" interp="linr"  time="0/1" value="1" leadInLength="0/1"  name="volume"/>
          <Parameter id="76"  name="captions"/>
         </Parameters>
         <Attributes>
          <Attribute id="77" value="" name="ident"/>
          <Attribute id="78" value="44100" name="sampleRate"/>
          <Attribute id="79" value="16" name="bitDepth"/>
          <Attribute id="80" value="1" name="gain"/>
          <Attribute id="81" value="0" name="mixToMono"/>
         </Attributes>
         <MetaData>
          <entry key="WinSubProjectDisplayName" val=""/>
         </MetaData>
        </AMFile>
        <AMFile id="82" start="19456" duration="4621" scalar="1/1" mediaStart="0/1" mediaDuration="4621/1" trackNumber="2" src="11" channelNumber="0,1" >
         <Parameters>
          <InterpolatingParam id="83" interp="linr"  time="0/1" value="1" leadInLength="0/1"  name="volume"/>
          <Parameter id="84"  name="captions"/>
         </Parameters>
         <Attributes>
          <Attribute id="85" value="" name="ident"/>
          <Attribute id="86" value="44100" name="sampleRate"/>
          <Attribute id="87" value="16" name="bitDepth"/>
          <Attribute id="88" value="1" name="gain"/>
          <Attribute id="89" value="0" name="mixToMono"/>
         </Attributes>
         <MetaData>
          <entry key="WinSubProjectDisplayName" val=""/>
         </MetaData>
        </AMFile>
        <AMFile id="90" start="24077" duration="2941" scalar="1/1" mediaStart="0/1" mediaDuration="2941/1" trackNumber="2" src="12" channelNumber="0,1" >
         <Parameters>
          <InterpolatingParam id="91" interp="linr"  time="0/1" value="1" leadInLength="0/1"  name="volume"/>
          <Parameter id="92"  name="captions"/>
         </Parameters>
         <Attributes>
          <Attribute id="93" value="" name="ident"/>
          <Attribute id="94" value="44100" name="sampleRate"/>
          <Attribute id="95" value="16" name="bitDepth"/>
          <Attribute id="96" value="1" name="gain"/>
          <Attribute id="97" value="0" name="mixToMono"/>
         </Attributes>
         <MetaData>
          <entry key="WinSubProjectDisplayName" val=""/>
         </MetaData>
        </AMFile>
        <AMFile id="98" start="27033" duration="2670" scalar="1/1" mediaStart="0/1" mediaDuration="2670/1" trackNumber="2" src="13" channelNumber="0,1" >
         <Parameters>
          <InterpolatingParam id="99" interp="linr"  time="0/1" value="1" leadInLength="0/1"  name="volume"/>
          <Parameter id="100"  name="captions"/>
         </Parameters>
         <Attributes>
          <Attribute id="101" value="" name="ident"/>
          <Attribute id="102" value="44100" name="sampleRate"/>
          <Attribute id="103" value="16" name="bitDepth"/>
          <Attribute id="104" value="1" name="gain"/>
          <Attribute id="105" value="0" name="mixToMono"/>
         </Attributes>
         <MetaData>
          <entry key="WinSubProjectDisplayName" val=""/>
         </MetaData>
        </AMFile>
        <AMFile id="106" start="29719" duration="2580" scalar="1/1" mediaStart="0/1" mediaDuration="2580/1" trackNumber="2" src="14" channelNumber="0,1" >
         <Parameters>
          <InterpolatingParam id="107" interp="linr"  time="0/1" value="1" leadInLength="0/1"  name="volume"/>
          <Parameter id="108"  name="captions"/>
         </Parameters>
         <Attributes>
          <Attribute id="109" value="" name="ident"/>
          <Attribute id="110" value="44100" name="sampleRate"/>
          <Attribute id="111" value="16" name="bitDepth"/>
          <Attribute id="112" value="1" name="gain"/>
          <Attribute id="113" value="0" name="mixToMono"/>
         </Attributes>
         <MetaData>
          <entry key="WinSubProjectDisplayName" val=""/>
         </MetaData>
        </AMFile>
        <AMFile id="114" start="32315" duration="1710" scalar="1/1" mediaStart="0/1" mediaDuration="1710/1" trackNumber="2" src="15" channelNumber="0,1" >
         <Parameters>
          <InterpolatingParam id="115" interp="linr"  time="0/1" value="1" leadInLength="0/1"  name="volume"/>
          <Parameter id="116"  name="captions"/>
         </Parameters>
         <Attributes>
          <Attribute id="117" value="" name="ident"/>
          <Attribute id="118" value="44100" name="sampleRate"/>
          <Attribute id="119" value="16" name="bitDepth"/>
          <Attribute id="120" value="1" name="gain"/>
          <Attribute id="121" value="0" name="mixToMono"/>
         </Attributes>
         <MetaData>
          <entry key="WinSubProjectDisplayName" val=""/>
         </MetaData>
        </AMFile>
        <AMFile id="122" start="34041" duration="2371" scalar="1/1" mediaStart="0/1" mediaDuration="2371/1" trackNumber="2" src="16" channelNumber="0,1" >
         <Parameters>
          <InterpolatingParam id="123" interp="linr"  time="0/1" value="1" leadInLength="0/1"  name="volume"/>
          <Parameter id="124"  name="captions"/>
         </Parameters>
         <Attributes>
          <Attribute id="125" value="" name="ident"/>
          <Attribute id="126" value="44100" name="sampleRate"/>
          <Attribute id="127" value="16" name="bitDepth"/>
          <Attribute id="128" value="1" name="gain"/>
          <Attribute id="129" value="0" name="mixToMono"/>
         </Attributes>
         <MetaData>
          <entry key="WinSubProjectDisplayName" val=""/>
         </MetaData>
        </AMFile>
       </Medias>
      </GenericTrack>
      <GenericTrack id="130"  >
       <Attributes>
        <Attribute id="131" value="" name="ident"/>
        <Attribute id="132" value="0" name="audioMuted"/>
        <Attribute id="133" value="0" name="videoHidden"/>
       </Attributes>
       <MetaData>
        <entry key="IsLocked" val="False"/>
        <entry key="WinTrackHeight" val="62"/>
       </MetaData>
       <Medias>
        <UnifiedMedia id="134"  >
         <AMFile id="135" start="0" duration="1141" scalar="1/1" mediaStart="0/1" mediaDuration="1141/1" trackNumber="1" src="5" channelNumber="0,1" >
          <Parameters>
           <InterpolatingParam id="136" interp="linr"  time="0/1" value="1" leadInLength="0/1"  name="volume"/>
           <Parameter id="137"  name="captions"/>
          </Parameters>
          <Attributes>
           <Attribute id="138" value="" name="ident"/>
           <Attribute id="139" value="44100" name="sampleRate"/>
           <Attribute id="140" value="16" name="bitDepth"/>
           <Attribute id="141" value="1" name="gain"/>
           <Attribute id="142" value="0" name="mixToMono"/>
          </Attributes>
         </AMFile>
         <ScreenVMFile id="143" start="0" duration="1141" scalar="1/1" mediaStart="0/1" mediaDuration="1141/1" trackNumber="0" src="5" >
          <Transformer>
           <VectorParam id="144"  name="translation">
            <InterpolatingParam id="145" interp="linr"  time="-9999999/1" value="0" leadInLength="0/1"  interpolater="leadin-linr"  />
            <InterpolatingParam id="146" interp="linr"  time="-9999999/1" value="0" leadInLength="0/1"  interpolater="leadin-linr"  />
            <InterpolatingParam id="147" interp="linr"  time="-9999999/1" value="0" leadInLength="0/1"  interpolater="leadin-linr"  />
           </VectorParam>
           <VectorParam id="148"  name="rotation">
            <InterpolatingParam id="149" interp="linr"  time="-9999999/1" value="0" leadInLength="0/1"  interpolater="leadin-linr"  />
            <InterpolatingParam id="150" interp="linr"  time="-9999999/1" value="0" leadInLength="0/1"  interpolater="leadin-linr"  />
            <InterpolatingParam id="151" interp="linr"  time="-9999999/1" value="0" leadInLength="0/1"  interpolater="leadin-linr"  />
           </VectorParam>
           <VectorParam id="152"  name="shear">
            <InterpolatingParam id="153" interp="linr"  time="-9999999/1" value="0" leadInLength="0/1"  interpolater="leadin-linr"  />
            <InterpolatingParam id="154" interp="linr"  time="-9999999/1" value="0" leadInLength="0/1"  interpolater="leadin-linr"  />
            <InterpolatingParam id="155" interp="linr"  time="-9999999/1" value="0" leadInLength="0/1"  interpolater="leadin-linr"  />
           </VectorParam>
           <VectorParam id="156"  name="scale">
            <InterpolatingParam id="157" interp="linr"  time="-9999999/1" value="0.98901098901098905" leadInLength="0/1"  interpolater="leadin-linr"  />
            <InterpolatingParam id="158" interp="linr"  time="-9999999/1" value="0.98901098901098905" leadInLength="0/1"  interpolater="leadin-linr"  />
            <InterpolatingParam id="159" interp="linr"  time="-9999999/1" value="1" leadInLength="0/1"  interpolater="leadin-linr"  />
           </VectorParam>
           <VectorParam id="160"  name="anchor">
            <InterpolatingParam id="161" interp="linr"  time="0/1" value="0" leadInLength="0/1"  />
            <InterpolatingParam id="162" interp="linr"  time="0/1" value="0" leadInLength="0/1"  />
            <InterpolatingParam id="163" interp="linr"  time="0/1" value="0" leadInLength="0/1"  />
           </VectorParam>
          </Transformer>
          <Parameters>
           <VectorParam id="164"  name="sourceCrop">
            <InterpolatingParam id="165" interp="linr"  time="0/1" value="0" leadInLength="0/1"  />
            <InterpolatingParam id="166" interp="linr"  time="0/1" value="0" leadInLength="0/1"  />
            <InterpolatingParam id="167" interp="linr"  time="0/1" value="0" leadInLength="0/1"  />
            <InterpolatingParam id="168" interp="linr"  time="0/1" value="0" leadInLength="0/1"  />
           </VectorParam>
           <VectorParam id="169"  name="geometryCrop">
            <InterpolatingParam id="170" interp="linr"  time="-9999999/1" value="0" leadInLength="0/1"  interpolater="leadin-linr"  />
            <InterpolatingParam id="171" interp="linr"  time="-9999999/1" value="0" leadInLength="0/1"  interpolater="leadin-linr"  />
            <InterpolatingParam id="172" interp="linr"  time="-9999999/1" value="0" leadInLength="0/1"  interpolater="leadin-linr"  />
            <InterpolatingParam id="173" interp="linr"  time="-9999999/1" value="0" leadInLength="0/1"  interpolater="leadin-linr"  />
           </VectorParam>
           <InterpolatingParam id="174" interp="linr"  time="-9999999/1" value="1" leadInLength="0/1"  interpolater="leadin-linr"  name="opacity"/>
           <InterpolatingParam id="175" interp="linr"  time="0/1" value="1" leadInLength="0/1"  name="cursorOpacity"/>
           <InterpolatingParam id="176" interp="linr"  time="0/1" value="1" leadInLength="0/1"  name="cursorScale"/>
          </Parameters>
          <Effects>
           <GenericEffect id="177" name = "CursorBaseEffectName" >
            <Parameters>
            <InterpolatingParam id="178" interp="linr"  time="-9999999/1" value="1" leadInLength="0/1"   name="cursorSize"/>
            <InterpolatingParam id="179" interp="linr"  time="-9999999/1" value="0" leadInLength="0/1"   name="highlightBlurRadius"/>
            <InterpolatingParam id="180" interp="linr"  time="-9999999/1" value="0" leadInLength="0/1"   name="highlightColorBlue"/>
            <InterpolatingParam id="181" interp="linr"  time="-9999999/1" value="255" leadInLength="0/1"   name="highlightColorGreen"/>
            <InterpolatingParam id="182" interp="linr"  time="-9999999/1" value="255" leadInLength="0/1"   name="highlightColorRed"/>
            <InterpolatingParam id="183" interp="linr"  time="-9999999/1" value="5" leadInLength="0/1"   name="highlightFeatherSize"/>
            <InterpolatingParam id="184" interp="linr"  time="-9999999/1" value="2" leadInLength="0/1"   name="highlightMagnification"/>
            <InterpolatingParam id="185" interp="linr"  time="-9999999/1" value="1" leadInLength="0/1"   name="highlightOpacity"/>
            <InterpolatingParam id="186" interp="linr"  time="-9999999/1" value="45" leadInLength="0/1"   name="highlightSize"/>
            <Parameter id="187"   name="highlightType">
             <Keyframes>
             <Keyframe id="188"  time="-9999999/1" value="0" leadInLength="0/1"  />
             </Keyframes>
            </Parameter>
            <InterpolatingParam id="189" interp="linr"  time="-9999999/1" value="0" leadInLength="0/1"   name="leftClickColorBlue"/>
            <InterpolatingParam id="190" interp="linr"  time="-9999999/1" value="0" leadInLength="0/1"   name="leftClickColorGreen"/>
            <InterpolatingParam id="191" interp="linr"  time="-9999999/1" value="255" leadInLength="0/1"   name="leftClickColorRed"/>
            <InterpolatingParam id="192" interp="linr"  time="-9999999/1" value="0.80000000000000004" leadInLength="0/1"   name="leftClickDuration"/>
            <InterpolatingParam id="193" interp="linr"  time="-9999999/1" value="20" leadInLength="0/1"   name="leftClickSize"/>
            <Parameter id="194"   name="leftClickSoundFilename">
             <Keyframes>
             <Keyframe id="195"  time="-9999999/1" value="" leadInLength="0/1"  />
             </Keyframes>
            </Parameter>
            <InterpolatingParam id="196" interp="linr"  time="-9999999/1" value="1" leadInLength="0/1"   name="leftClickSoundVolume"/>
            <Parameter id="197"   name="leftClickType">
             <Keyframes>
             <Keyframe id="198"  time="-9999999/1" value="0" leadInLength="0/1"  />
             </Keyframes>
            </Parameter>
            <InterpolatingParam id="199" interp="linr"  time="-9999999/1" value="1" leadInLength="0/1"   name="opacity"/>
            <InterpolatingParam id="200" interp="linr"  time="-9999999/1" value="255" leadInLength="0/1"   name="rightClickColorBlue"/>
            <InterpolatingParam id="201" interp="linr"  time="-9999999/1" value="0" leadInLength="0/1"   name="rightClickColorGreen"/>
            <InterpolatingParam id="202" interp="linr"  time="-9999999/1" value="0" leadInLength="0/1"   name="rightClickColorRed"/>
            <InterpolatingParam id="203" interp="linr"  time="-9999999/1" value="0.80000000000000004" leadInLength="0/1"   name="rightClickDuration"/>
            <InterpolatingParam id="204" interp="linr"  time="-9999999/1" value="20" leadInLength="0/1"   name="rightClickSize"/>
            <Parameter id="205"   name="rightClickSoundFilename">
             <Keyframes>
             <Keyframe id="206"  time="-9999999/1" value="" leadInLength="0/1"  />
             </Keyframes>
            </Parameter>
            <InterpolatingParam id="207" interp="linr"  time="-9999999/1" value="1" leadInLength="0/1"   name="rightClickSoundVolume"/>
            <Parameter id="208"   name="rightClickType">
             <Keyframes>
             <Keyframe id="209"  time="-9999999/1" value="0" leadInLength="0/1"  />
             </Keyframes>
            </Parameter>
            </Parameters>
            <MetaData>
             <entry key="effectIndex" val="0"/>
            </MetaData>
           </GenericEffect>
          </Effects>
          <Attributes>
           <Attribute id="210" value="" name="ident"/>
          </Attributes>
          <ExtraData>
           <Entry key="ZoomPanBin">
            <ZoomPanBin id="211"  >
             <ZoomPanKeyframes>
              <ZoomPanKeyframe id="212" timeRangeEnd="-9999999/1" timeRangeDuration="0/1" interpolaterName="leadin-linr"  />
             </ZoomPanKeyframes>
            </ZoomPanBin>
           </Entry>
           <Entry key="CursorEffectBin">
            <CursorEffectBin id="213"  >
             <CursorEffectKeyframes>
              <CursorEffectKeyframe id="214" timeRangeEnd="-9999999/1" timeRangeDuration="0/1" interpolaterName=""  />
             </CursorEffectKeyframes>
            </CursorEffectBin>
           </Entry>
          </ExtraData>
         </ScreenVMFile>
         <MetaData>
          <entry key="AutoAppliedSmartFocus" val="False"/>
          <entry key="WinSubProjectDisplayName" val=""/>
         </MetaData>
        </UnifiedMedia>
        <UnifiedMedia id="215"  >
         <AMFile id="216" start="1141" duration="1485" scalar="1/1" mediaStart="0/1" mediaDuration="1485/1" trackNumber="1" src="4" channelNumber="0,1" >
          <Parameters>
           <InterpolatingParam id="217" interp="linr"  time="0/1" value="1" leadInLength="0/1"  name="volume"/>
           <Parameter id="218"  name="captions"/>
          </Parameters>
          <Attributes>
           <Attribute id="219" value="" name="ident"/>
           <Attribute id="220" value="44100" name="sampleRate"/>
           <Attribute id="221" value="16" name="bitDepth"/>
           <Attribute id="222" value="1" name="gain"/>
           <Attribute id="223" value="0" name="mixToMono"/>
          </Attributes>
         </AMFile>
         <ScreenVMFile id="224" start="1141" duration="1485" scalar="1/1" mediaStart="0/1" mediaDuration="1485/1" trackNumber="0" src="4" >
          <Transformer>
           <VectorParam id="225"  name="translation">
            <InterpolatingParam id="226" interp="linr"  time="-9999999/1" value="0" leadInLength="0/1"  />
            <InterpolatingParam id="227" interp="linr"  time="-9999999/1" value="0" leadInLength="0/1"  />
            <InterpolatingParam id="228" interp="linr"  time="-9999999/1" value="0" leadInLength="0/1"  />
           </VectorParam>
           <VectorParam id="229"  name="rotation">
            <InterpolatingParam id="230" interp="linr"  time="-9999999/1" value="0" leadInLength="0/1"  />
            <InterpolatingParam id="231" interp="linr"  time="-9999999/1" value="0" leadInLength="0/1"  />
            <InterpolatingParam id="232" interp="linr"  time="-9999999/1" value="0" leadInLength="0/1"  />
           </VectorParam>
           <VectorParam id="233"  name="shear">
            <InterpolatingParam id="234" interp="linr"  time="-9999999/1" value="0" leadInLength="0/1"  />
            <InterpolatingParam id="235" interp="linr"  time="-9999999/1" value="0" leadInLength="0/1"  />
            <InterpolatingParam id="236" interp="linr"  time="-9999999/1" value="0" leadInLength="0/1"  />
           </VectorParam>
           <VectorParam id="237"  name="scale">
            <InterpolatingParam id="238" interp="linr"  time="-9999999/1" value="0.98901098901098905" leadInLength="0/1"  />
            <InterpolatingParam id="239" interp="linr"  time="-9999999/1" value="0.98901098901098905" leadInLength="0/1"  />
            <InterpolatingParam id="240" interp="linr"  time="-9999999/1" value="1" leadInLength="0/1"  />
           </VectorParam>
           <VectorParam id="241"  name="anchor">
            <InterpolatingParam id="242" interp="linr"  time="0/1" value="0" leadInLength="0/1"  />
            <InterpolatingParam id="243" interp="linr"  time="0/1" value="0" leadInLength="0/1"  />
            <InterpolatingParam id="244" interp="linr"  time="0/1" value="0" leadInLength="0/1"  />
           </VectorParam>
          </Transformer>
          <Parameters>
           <VectorParam id="245"  name="sourceCrop">
            <InterpolatingParam id="246" interp="linr"  time="0/1" value="0" leadInLength="0/1"  />
            <InterpolatingParam id="247" interp="linr"  time="0/1" value="0" leadInLength="0/1"  />
            <InterpolatingParam id="248" interp="linr"  time="0/1" value="0" leadInLength="0/1"  />
            <InterpolatingParam id="249" interp="linr"  time="0/1" value="0" leadInLength="0/1"  />
           </VectorParam>
           <VectorParam id="250"  name="geometryCrop">
            <InterpolatingParam id="251" interp="linr"  time="-9999999/1" value="0" leadInLength="0/1"  />
            <InterpolatingParam id="252" interp="linr"  time="-9999999/1" value="0" leadInLength="0/1"  />
            <InterpolatingParam id="253" interp="linr"  time="-9999999/1" value="0" leadInLength="0/1"  />
            <InterpolatingParam id="254" interp="linr"  time="-9999999/1" value="0" leadInLength="0/1"  />
           </VectorParam>
           <InterpolatingParam id="255" interp="linr"  time="-9999999/1" value="1" leadInLength="0/1"  name="opacity"/>
           <InterpolatingParam id="256" interp="linr"  time="0/1" value="1" leadInLength="0/1"  name="cursorOpacity"/>
           <InterpolatingParam id="257" interp="linr"  time="0/1" value="1" leadInLength="0/1"  name="cursorScale"/>
          </Parameters>
          <Effects>
           <GenericEffect id="258" name = "CursorBaseEffectName" >
            <Parameters>
            <InterpolatingParam id="259" interp="linr"  time="-9999999/1" value="1" leadInLength="0/1"   name="cursorSize"/>
            <InterpolatingParam id="260" interp="linr"  time="-9999999/1" value="0" leadInLength="0/1"   name="highlightBlurRadius"/>
            <InterpolatingParam id="261" interp="linr"  time="-9999999/1" value="0" leadInLength="0/1"   name="highlightColorBlue"/>
            <InterpolatingParam id="262" interp="linr"  time="-9999999/1" value="255" leadInLength="0/1"   name="highlightColorGreen"/>
            <InterpolatingParam id="263" interp="linr"  time="-9999999/1" value="255" leadInLength="0/1"   name="highlightColorRed"/>
            <InterpolatingParam id="264" interp="linr"  time="-9999999/1" value="5" leadInLength="0/1"   name="highlightFeatherSize"/>
            <InterpolatingParam id="265" interp="linr"  time="-9999999/1" value="2" leadInLength="0/1"   name="highlightMagnification"/>
            <InterpolatingParam id="266" interp="linr"  time="-9999999/1" value="1" leadInLength="0/1"   name="highlightOpacity"/>
            <InterpolatingParam id="267" interp="linr"  time="-9999999/1" value="45" leadInLength="0/1"   name="highlightSize"/>
            <Parameter id="268"   name="highlightType">
             <Keyframes>
             <Keyframe id="269"  time="-9999999/1" value="0" leadInLength="0/1"  />
             </Keyframes>
            </Parameter>
            <InterpolatingParam id="270" interp="linr"  time="-9999999/1" value="0" leadInLength="0/1"   name="leftClickColorBlue"/>
            <InterpolatingParam id="271" interp="linr"  time="-9999999/1" value="0" leadInLength="0/1"   name="leftClickColorGreen"/>
            <InterpolatingParam id="272" interp="linr"  time="-9999999/1" value="255" leadInLength="0/1"   name="leftClickColorRed"/>
            <InterpolatingParam id="273" interp="linr"  time="-9999999/1" value="0.80000000000000004" leadInLength="0/1"   name="leftClickDuration"/>
            <InterpolatingParam id="274" interp="linr"  time="-9999999/1" value="20" leadInLength="0/1"   name="leftClickSize"/>
            <Parameter id="275"   name="leftClickSoundFilename">
             <Keyframes>
             <Keyframe id="276"  time="-9999999/1" value="" leadInLength="0/1"  />
             </Keyframes>
            </Parameter>
            <InterpolatingParam id="277" interp="linr"  time="-9999999/1" value="1" leadInLength="0/1"   name="leftClickSoundVolume"/>
            <Parameter id="278"   name="leftClickType">
             <Keyframes>
             <Keyframe id="279"  time="-9999999/1" value="0" leadInLength="0/1"  />
             </Keyframes>
            </Parameter>
            <InterpolatingParam id="280" interp="linr"  time="-9999999/1" value="1" leadInLength="0/1"   name="opacity"/>
            <InterpolatingParam id="281" interp="linr"  time="-9999999/1" value="255" leadInLength="0/1"   name="rightClickColorBlue"/>
            <InterpolatingParam id="282" interp="linr"  time="-9999999/1" value="0" leadInLength="0/1"   name="rightClickColorGreen"/>
            <InterpolatingParam id="283" interp="linr"  time="-9999999/1" value="0" leadInLength="0/1"   name="rightClickColorRed"/>
            <InterpolatingParam id="284" interp="linr"  time="-9999999/1" value="0.80000000000000004" leadInLength="0/1"   name="rightClickDuration"/>
            <InterpolatingParam id="285" interp="linr"  time="-9999999/1" value="20" leadInLength="0/1"   name="rightClickSize"/>
            <Parameter id="286"   name="rightClickSoundFilename">
             <Keyframes>
             <Keyframe id="287"  time="-9999999/1" value="" leadInLength="0/1"  />
             </Keyframes>
            </Parameter>
            <InterpolatingParam id="288" interp="linr"  time="-9999999/1" value="1" leadInLength="0/1"   name="rightClickSoundVolume"/>
            <Parameter id="289"   name="rightClickType">
             <Keyframes>
             <Keyframe id="290"  time="-9999999/1" value="0" leadInLength="0/1"  />
             </Keyframes>
            </Parameter>
            </Parameters>
            <MetaData>
             <entry key="effectIndex" val="0"/>
            </MetaData>
           </GenericEffect>
          </Effects>
          <Attributes>
           <Attribute id="291" value="" name="ident"/>
          </Attributes>
          <ExtraData>
           <Entry key="ZoomPanBin">
            <ZoomPanBin id="292"  >
             <ZoomPanKeyframes>
              <ZoomPanKeyframe id="293" timeRangeEnd="-9999999/1" timeRangeDuration="0/1" interpolaterName="linr"  />
             </ZoomPanKeyframes>
            </ZoomPanBin>
           </Entry>
           <Entry key="CursorEffectBin">
            <CursorEffectBin id="294"  >
             <CursorEffectKeyframes>
              <CursorEffectKeyframe id="295" timeRangeEnd="-9999999/1" timeRangeDuration="0/1" interpolaterName=""  />
             </CursorEffectKeyframes>
            </CursorEffectBin>
           </Entry>
          </ExtraData>
         </ScreenVMFile>
         <MetaData>
          <entry key="AutoAppliedSmartFocus" val="False"/>
          <entry key="WinSubProjectDisplayName" val=""/>
         </MetaData>
        </UnifiedMedia>
        <UnifiedMedia id="296"  >
         <AMFile id="297" start="2626" duration="2460" scalar="1/1" mediaStart="0/1" mediaDuration="2460/1" trackNumber="1" src="6" channelNumber="0,1" >
          <Parameters>
           <InterpolatingParam id="298" interp="linr"  time="0/1" value="1" leadInLength="0/1"  name="volume"/>
           <Parameter id="299"  name="captions"/>
          </Parameters>
          <Attributes>
           <Attribute id="300" value="" name="ident"/>
           <Attribute id="301" value="44100" name="sampleRate"/>
           <Attribute id="302" value="16" name="bitDepth"/>
           <Attribute id="303" value="1" name="gain"/>
           <Attribute id="304" value="0" name="mixToMono"/>
          </Attributes>
         </AMFile>
         <ScreenVMFile id="305" start="2626" duration="2460" scalar="1/1" mediaStart="0/1" mediaDuration="2460/1" trackNumber="0" src="6" >
          <Transformer>
           <VectorParam id="306"  name="translation">
            <InterpolatingParam id="307" interp="linr"  time="-9999999/1" value="0" leadInLength="0/1"  />
            <InterpolatingParam id="308" interp="linr"  time="-9999999/1" value="0" leadInLength="0/1"  />
            <InterpolatingParam id="309" interp="linr"  time="-9999999/1" value="0" leadInLength="0/1"  />
           </VectorParam>
           <VectorParam id="310"  name="rotation">
            <InterpolatingParam id="311" interp="linr"  time="-9999999/1" value="0" leadInLength="0/1"  />
            <InterpolatingParam id="312" interp="linr"  time="-9999999/1" value="0" leadInLength="0/1"  />
            <InterpolatingParam id="313" interp="linr"  time="-9999999/1" value="0" leadInLength="0/1"  />
           </VectorParam>
           <VectorParam id="314"  name="shear">
            <InterpolatingParam id="315" interp="linr"  time="-9999999/1" value="0" leadInLength="0/1"  />
            <InterpolatingParam id="316" interp="linr"  time="-9999999/1" value="0" leadInLength="0/1"  />
            <InterpolatingParam id="317" interp="linr"  time="-9999999/1" value="0" leadInLength="0/1"  />
           </VectorParam>
           <VectorParam id="318"  name="scale">
            <InterpolatingParam id="319" interp="linr"  time="-9999999/1" value="0.98901098901098905" leadInLength="0/1"  />
            <InterpolatingParam id="320" interp="linr"  time="-9999999/1" value="0.98901098901098905" leadInLength="0/1"  />
            <InterpolatingParam id="321" interp="linr"  time="-9999999/1" value="1" leadInLength="0/1"  />
           </VectorParam>
           <VectorParam id="322"  name="anchor">
            <InterpolatingParam id="323" interp="linr"  time="0/1" value="0" leadInLength="0/1"  />
            <InterpolatingParam id="324" interp="linr"  time="0/1" value="0" leadInLength="0/1"  />
            <InterpolatingParam id="325" interp="linr"  time="0/1" value="0" leadInLength="0/1"  />
           </VectorParam>
          </Transformer>
          <Parameters>
           <VectorParam id="326"  name="sourceCrop">
            <InterpolatingParam id="327" interp="linr"  time="0/1" value="0" leadInLength="0/1"  />
            <InterpolatingParam id="328" interp="linr"  time="0/1" value="0" leadInLength="0/1"  />
            <InterpolatingParam id="329" interp="linr"  time="0/1" value="0" leadInLength="0/1"  />
            <InterpolatingParam id="330" interp="linr"  time="0/1" value="0" leadInLength="0/1"  />
           </VectorParam>
           <VectorParam id="331"  name="geometryCrop">
            <InterpolatingParam id="332" interp="linr"  time="-9999999/1" value="0" leadInLength="0/1"  />
            <InterpolatingParam id="333" interp="linr"  time="-9999999/1" value="0" leadInLength="0/1"  />
            <InterpolatingParam id="334" interp="linr"  time="-9999999/1" value="0" leadInLength="0/1"  />
            <InterpolatingParam id="335" interp="linr"  time="-9999999/1" value="0" leadInLength="0/1"  />
           </VectorParam>
           <InterpolatingParam id="336" interp="linr"  time="-9999999/1" value="1" leadInLength="0/1"  name="opacity"/>
           <InterpolatingParam id="337" interp="linr"  time="0/1" value="1" leadInLength="0/1"  name="cursorOpacity"/>
           <InterpolatingParam id="338" interp="linr"  time="0/1" value="1" leadInLength="0/1"  name="cursorScale"/>
          </Parameters>
          <Effects>
           <GenericEffect id="339" name = "CursorBaseEffectName" >
            <Parameters>
            <InterpolatingParam id="340" interp="linr"  time="-9999999/1" value="1" leadInLength="0/1"   name="cursorSize"/>
            <InterpolatingParam id="341" interp="linr"  time="-9999999/1" value="0" leadInLength="0/1"   name="highlightBlurRadius"/>
            <InterpolatingParam id="342" interp="linr"  time="-9999999/1" value="0" leadInLength="0/1"   name="highlightColorBlue"/>
            <InterpolatingParam id="343" interp="linr"  time="-9999999/1" value="255" leadInLength="0/1"   name="highlightColorGreen"/>
            <InterpolatingParam id="344" interp="linr"  time="-9999999/1" value="255" leadInLength="0/1"   name="highlightColorRed"/>
            <InterpolatingParam id="345" interp="linr"  time="-9999999/1" value="5" leadInLength="0/1"   name="highlightFeatherSize"/>
            <InterpolatingParam id="346" interp="linr"  time="-9999999/1" value="2" leadInLength="0/1"   name="highlightMagnification"/>
            <InterpolatingParam id="347" interp="linr"  time="-9999999/1" value="1" leadInLength="0/1"   name="highlightOpacity"/>
            <InterpolatingParam id="348" interp="linr"  time="-9999999/1" value="45" leadInLength="0/1"   name="highlightSize"/>
            <Parameter id="349"   name="highlightType">
             <Keyframes>
             <Keyframe id="350"  time="-9999999/1" value="0" leadInLength="0/1"  />
             </Keyframes>
            </Parameter>
            <InterpolatingParam id="351" interp="linr"  time="-9999999/1" value="0" leadInLength="0/1"   name="leftClickColorBlue"/>
            <InterpolatingParam id="352" interp="linr"  time="-9999999/1" value="0" leadInLength="0/1"   name="leftClickColorGreen"/>
            <InterpolatingParam id="353" interp="linr"  time="-9999999/1" value="255" leadInLength="0/1"   name="leftClickColorRed"/>
            <InterpolatingParam id="354" interp="linr"  time="-9999999/1" value="0.80000000000000004" leadInLength="0/1"   name="leftClickDuration"/>
            <InterpolatingParam id="355" interp="linr"  time="-9999999/1" value="20" leadInLength="0/1"   name="leftClickSize"/>
            <Parameter id="356"   name="leftClickSoundFilename">
             <Keyframes>
             <Keyframe id="357"  time="-9999999/1" value="" leadInLength="0/1"  />
             </Keyframes>
            </Parameter>
            <InterpolatingParam id="358" interp="linr"  time="-9999999/1" value="1" leadInLength="0/1"   name="leftClickSoundVolume"/>
            <Parameter id="359"   name="leftClickType">
             <Keyframes>
             <Keyframe id="360"  time="-9999999/1" value="0" leadInLength="0/1"  />
             </Keyframes>
            </Parameter>
            <InterpolatingParam id="361" interp="linr"  time="-9999999/1" value="1" leadInLength="0/1"   name="opacity"/>
            <InterpolatingParam id="362" interp="linr"  time="-9999999/1" value="255" leadInLength="0/1"   name="rightClickColorBlue"/>
            <InterpolatingParam id="363" interp="linr"  time="-9999999/1" value="0" leadInLength="0/1"   name="rightClickColorGreen"/>
            <InterpolatingParam id="364" interp="linr"  time="-9999999/1" value="0" leadInLength="0/1"   name="rightClickColorRed"/>
            <InterpolatingParam id="365" interp="linr"  time="-9999999/1" value="0.80000000000000004" leadInLength="0/1"   name="rightClickDuration"/>
            <InterpolatingParam id="366" interp="linr"  time="-9999999/1" value="20" leadInLength="0/1"   name="rightClickSize"/>
            <Parameter id="367"   name="rightClickSoundFilename">
             <Keyframes>
             <Keyframe id="368"  time="-9999999/1" value="" leadInLength="0/1"  />
             </Keyframes>
            </Parameter>
            <InterpolatingParam id="369" interp="linr"  time="-9999999/1" value="1" leadInLength="0/1"   name="rightClickSoundVolume"/>
            <Parameter id="370"   name="rightClickType">
             <Keyframes>
             <Keyframe id="371"  time="-9999999/1" value="0" leadInLength="0/1"  />
             </Keyframes>
            </Parameter>
            </Parameters>
            <MetaData>
             <entry key="effectIndex" val="0"/>
            </MetaData>
           </GenericEffect>
          </Effects>
          <Attributes>
           <Attribute id="372" value="" name="ident"/>
          </Attributes>
          <ExtraData>
           <Entry key="ZoomPanBin">
            <ZoomPanBin id="373"  >
             <ZoomPanKeyframes>
              <ZoomPanKeyframe id="374" timeRangeEnd="-9999999/1" timeRangeDuration="0/1" interpolaterName="linr"  />
             </ZoomPanKeyframes>
            </ZoomPanBin>
           </Entry>
           <Entry key="CursorEffectBin">
            <CursorEffectBin id="375"  >
             <CursorEffectKeyframes>
              <CursorEffectKeyframe id="376" timeRangeEnd="-9999999/1" timeRangeDuration="0/1" interpolaterName=""  />
             </CursorEffectKeyframes>
            </CursorEffectBin>
           </Entry>
          </ExtraData>
         </ScreenVMFile>
         <MetaData>
          <entry key="AutoAppliedSmartFocus" val="False"/>
          <entry key="WinSubProjectDisplayName" val=""/>
         </MetaData>
        </UnifiedMedia>
        <UnifiedMedia id="377"  >
         <AMFile id="378" start="5086" duration="826" scalar="1/1" mediaStart="0/1" mediaDuration="826/1" trackNumber="1" src="7" channelNumber="0,1" >
          <Parameters>
           <InterpolatingParam id="379" interp="linr"  time="0/1" value="1" leadInLength="0/1"  name="volume"/>
           <Parameter id="380"  name="captions"/>
          </Parameters>
          <Attributes>
           <Attribute id="381" value="" name="ident"/>
           <Attribute id="382" value="44100" name="sampleRate"/>
           <Attribute id="383" value="16" name="bitDepth"/>
           <Attribute id="384" value="1" name="gain"/>
           <Attribute id="385" value="0" name="mixToMono"/>
          </Attributes>
         </AMFile>
         <ScreenVMFile id="386" start="5086" duration="826" scalar="1/1" mediaStart="0/1" mediaDuration="826/1" trackNumber="0" src="7" >
          <Transformer>
           <VectorParam id="387"  name="translation">
            <InterpolatingParam id="388" interp="linr"  time="-9999999/1" value="0" leadInLength="0/1"  />
            <InterpolatingParam id="389" interp="linr"  time="-9999999/1" value="0" leadInLength="0/1"  />
            <InterpolatingParam id="390" interp="linr"  time="-9999999/1" value="0" leadInLength="0/1"  />
           </VectorParam>
           <VectorParam id="391"  name="rotation">
            <InterpolatingParam id="392" interp="linr"  time="-9999999/1" value="0" leadInLength="0/1"  />
            <InterpolatingParam id="393" interp="linr"  time="-9999999/1" value="0" leadInLength="0/1"  />
            <InterpolatingParam id="394" interp="linr"  time="-9999999/1" value="0" leadInLength="0/1"  />
           </VectorParam>
           <VectorParam id="395"  name="shear">
            <InterpolatingParam id="396" interp="linr"  time="-9999999/1" value="0" leadInLength="0/1"  />
            <InterpolatingParam id="397" interp="linr"  time="-9999999/1" value="0" leadInLength="0/1"  />
            <InterpolatingParam id="398" interp="linr"  time="-9999999/1" value="0" leadInLength="0/1"  />
           </VectorParam>
           <VectorParam id="399"  name="scale">
            <InterpolatingParam id="400" interp="linr"  time="-9999999/1" value="0.98901098901098905" leadInLength="0/1"  />
            <InterpolatingParam id="401" interp="linr"  time="-9999999/1" value="0.98901098901098905" leadInLength="0/1"  />
            <InterpolatingParam id="402" interp="linr"  time="-9999999/1" value="1" leadInLength="0/1"  />
           </VectorParam>
           <VectorParam id="403"  name="anchor">
            <InterpolatingParam id="404" interp="linr"  time="0/1" value="0" leadInLength="0/1"  />
            <InterpolatingParam id="405" interp="linr"  time="0/1" value="0" leadInLength="0/1"  />
            <InterpolatingParam id="406" interp="linr"  time="0/1" value="0" leadInLength="0/1"  />
           </VectorParam>
          </Transformer>
          <Parameters>
           <VectorParam id="407"  name="sourceCrop">
            <InterpolatingParam id="408" interp="linr"  time="0/1" value="0" leadInLength="0/1"  />
            <InterpolatingParam id="409" interp="linr"  time="0/1" value="0" leadInLength="0/1"  />
            <InterpolatingParam id="410" interp="linr"  time="0/1" value="0" leadInLength="0/1"  />
            <InterpolatingParam id="411" interp="linr"  time="0/1" value="0" leadInLength="0/1"  />
           </VectorParam>
           <VectorParam id="412"  name="geometryCrop">
            <InterpolatingParam id="413" interp="linr"  time="-9999999/1" value="0" leadInLength="0/1"  />
            <InterpolatingParam id="414" interp="linr"  time="-9999999/1" value="0" leadInLength="0/1"  />
            <InterpolatingParam id="415" interp="linr"  time="-9999999/1" value="0" leadInLength="0/1"  />
            <InterpolatingParam id="416" interp="linr"  time="-9999999/1" value="0" leadInLength="0/1"  />
           </VectorParam>
           <InterpolatingParam id="417" interp="linr"  time="-9999999/1" value="1" leadInLength="0/1"  name="opacity"/>
           <InterpolatingParam id="418" interp="linr"  time="0/1" value="1" leadInLength="0/1"  name="cursorOpacity"/>
           <InterpolatingParam id="419" interp="linr"  time="0/1" value="1" leadInLength="0/1"  name="cursorScale"/>
          </Parameters>
          <Effects>
           <GenericEffect id="420" name = "CursorBaseEffectName" >
            <Parameters>
            <InterpolatingParam id="421" interp="linr"  time="-9999999/1" value="1" leadInLength="0/1"   name="cursorSize"/>
            <InterpolatingParam id="422" interp="linr"  time="-9999999/1" value="0" leadInLength="0/1"   name="highlightBlurRadius"/>
            <InterpolatingParam id="423" interp="linr"  time="-9999999/1" value="0" leadInLength="0/1"   name="highlightColorBlue"/>
            <InterpolatingParam id="424" interp="linr"  time="-9999999/1" value="255" leadInLength="0/1"   name="highlightColorGreen"/>
            <InterpolatingParam id="425" interp="linr"  time="-9999999/1" value="255" leadInLength="0/1"   name="highlightColorRed"/>
            <InterpolatingParam id="426" interp="linr"  time="-9999999/1" value="5" leadInLength="0/1"   name="highlightFeatherSize"/>
            <InterpolatingParam id="427" interp="linr"  time="-9999999/1" value="2" leadInLength="0/1"   name="highlightMagnification"/>
            <InterpolatingParam id="428" interp="linr"  time="-9999999/1" value="1" leadInLength="0/1"   name="highlightOpacity"/>
            <InterpolatingParam id="429" interp="linr"  time="-9999999/1" value="45" leadInLength="0/1"   name="highlightSize"/>
            <Parameter id="430"   name="highlightType">
             <Keyframes>
             <Keyframe id="431"  time="-9999999/1" value="0" leadInLength="0/1"  />
             </Keyframes>
            </Parameter>
            <InterpolatingParam id="432" interp="linr"  time="-9999999/1" value="0" leadInLength="0/1"   name="leftClickColorBlue"/>
            <InterpolatingParam id="433" interp="linr"  time="-9999999/1" value="0" leadInLength="0/1"   name="leftClickColorGreen"/>
            <InterpolatingParam id="434" interp="linr"  time="-9999999/1" value="255" leadInLength="0/1"   name="leftClickColorRed"/>
            <InterpolatingParam id="435" interp="linr"  time="-9999999/1" value="0.80000000000000004" leadInLength="0/1"   name="leftClickDuration"/>
            <InterpolatingParam id="436" interp="linr"  time="-9999999/1" value="20" leadInLength="0/1"   name="leftClickSize"/>
            <Parameter id="437"   name="leftClickSoundFilename">
             <Keyframes>
             <Keyframe id="438"  time="-9999999/1" value="" leadInLength="0/1"  />
             </Keyframes>
            </Parameter>
            <InterpolatingParam id="439" interp="linr"  time="-9999999/1" value="1" leadInLength="0/1"   name="leftClickSoundVolume"/>
            <Parameter id="440"   name="leftClickType">
             <Keyframes>
             <Keyframe id="441"  time="-9999999/1" value="0" leadInLength="0/1"  />
             </Keyframes>
            </Parameter>
            <InterpolatingParam id="442" interp="linr"  time="-9999999/1" value="1" leadInLength="0/1"   name="opacity"/>
            <InterpolatingParam id="443" interp="linr"  time="-9999999/1" value="255" leadInLength="0/1"   name="rightClickColorBlue"/>
            <InterpolatingParam id="444" interp="linr"  time="-9999999/1" value="0" leadInLength="0/1"   name="rightClickColorGreen"/>
            <InterpolatingParam id="445" interp="linr"  time="-9999999/1" value="0" leadInLength="0/1"   name="rightClickColorRed"/>
            <InterpolatingParam id="446" interp="linr"  time="-9999999/1" value="0.80000000000000004" leadInLength="0/1"   name="rightClickDuration"/>
            <InterpolatingParam id="447" interp="linr"  time="-9999999/1" value="20" leadInLength="0/1"   name="rightClickSize"/>
            <Parameter id="448"   name="rightClickSoundFilename">
             <Keyframes>
             <Keyframe id="449"  time="-9999999/1" value="" leadInLength="0/1"  />
             </Keyframes>
            </Parameter>
            <InterpolatingParam id="450" interp="linr"  time="-9999999/1" value="1" leadInLength="0/1"   name="rightClickSoundVolume"/>
            <Parameter id="451"   name="rightClickType">
             <Keyframes>
             <Keyframe id="452"  time="-9999999/1" value="0" leadInLength="0/1"  />
             </Keyframes>
            </Parameter>
            </Parameters>
            <MetaData>
             <entry key="effectIndex" val="0"/>
            </MetaData>
           </GenericEffect>
          </Effects>
          <Attributes>
           <Attribute id="453" value="" name="ident"/>
          </Attributes>
          <ExtraData>
           <Entry key="ZoomPanBin">
            <ZoomPanBin id="454"  >
             <ZoomPanKeyframes>
              <ZoomPanKeyframe id="455" timeRangeEnd="-9999999/1" timeRangeDuration="0/1" interpolaterName="linr"  />
             </ZoomPanKeyframes>
            </ZoomPanBin>
           </Entry>
           <Entry key="CursorEffectBin">
            <CursorEffectBin id="456"  >
             <CursorEffectKeyframes>
              <CursorEffectKeyframe id="457" timeRangeEnd="-9999999/1" timeRangeDuration="0/1" interpolaterName=""  />
             </CursorEffectKeyframes>
            </CursorEffectBin>
           </Entry>
          </ExtraData>
         </ScreenVMFile>
         <MetaData>
          <entry key="AutoAppliedSmartFocus" val="False"/>
          <entry key="WinSubProjectDisplayName" val=""/>
         </MetaData>
        </UnifiedMedia>
        <UnifiedMedia id="458"  >
         <AMFile id="459" start="5912" duration="3345" scalar="1/1" mediaStart="0/1" mediaDuration="3345/1" trackNumber="1" src="8" channelNumber="0,1" >
          <Parameters>
           <InterpolatingParam id="460" interp="linr"  time="0/1" value="1" leadInLength="0/1"  name="volume"/>
           <Parameter id="461"  name="captions"/>
          </Parameters>
          <Attributes>
           <Attribute id="462" value="" name="ident"/>
           <Attribute id="463" value="44100" name="sampleRate"/>
           <Attribute id="464" value="16" name="bitDepth"/>
           <Attribute id="465" value="1" name="gain"/>
           <Attribute id="466" value="0" name="mixToMono"/>
          </Attributes>
         </AMFile>
         <ScreenVMFile id="467" start="5912" duration="3345" scalar="1/1" mediaStart="0/1" mediaDuration="3345/1" trackNumber="0" src="8" >
          <Transformer>
           <VectorParam id="468"  name="translation">
            <InterpolatingParam id="469" interp="linr"  time="-9999999/1" value="0" leadInLength="0/1"  />
            <InterpolatingParam id="470" interp="linr"  time="-9999999/1" value="0" leadInLength="0/1"  />
            <InterpolatingParam id="471" interp="linr"  time="-9999999/1" value="0" leadInLength="0/1"  />
           </VectorParam>
           <VectorParam id="472"  name="rotation">
            <InterpolatingParam id="473" interp="linr"  time="-9999999/1" value="0" leadInLength="0/1"  />
            <InterpolatingParam id="474" interp="linr"  time="-9999999/1" value="0" leadInLength="0/1"  />
            <InterpolatingParam id="475" interp="linr"  time="-9999999/1" value="0" leadInLength="0/1"  />
           </VectorParam>
           <VectorParam id="476"  name="shear">
            <InterpolatingParam id="477" interp="linr"  time="-9999999/1" value="0" leadInLength="0/1"  />
            <InterpolatingParam id="478" interp="linr"  time="-9999999/1" value="0" leadInLength="0/1"  />
            <InterpolatingParam id="479" interp="linr"  time="-9999999/1" value="0" leadInLength="0/1"  />
           </VectorParam>
           <VectorParam id="480"  name="scale">
            <InterpolatingParam id="481" interp="linr"  time="-9999999/1" value="0.98901098901098905" leadInLength="0/1"  />
            <InterpolatingParam id="482" interp="linr"  time="-9999999/1" value="0.98901098901098905" leadInLength="0/1"  />
            <InterpolatingParam id="483" interp="linr"  time="-9999999/1" value="1" leadInLength="0/1"  />
           </VectorParam>
           <VectorParam id="484"  name="anchor">
            <InterpolatingParam id="485" interp="linr"  time="0/1" value="0" leadInLength="0/1"  />
            <InterpolatingParam id="486" interp="linr"  time="0/1" value="0" leadInLength="0/1"  />
            <InterpolatingParam id="487" interp="linr"  time="0/1" value="0" leadInLength="0/1"  />
           </VectorParam>
          </Transformer>
          <Parameters>
           <VectorParam id="488"  name="sourceCrop">
            <InterpolatingParam id="489" interp="linr"  time="0/1" value="0" leadInLength="0/1"  />
            <InterpolatingParam id="490" interp="linr"  time="0/1" value="0" leadInLength="0/1"  />
            <InterpolatingParam id="491" interp="linr"  time="0/1" value="0" leadInLength="0/1"  />
            <InterpolatingParam id="492" interp="linr"  time="0/1" value="0" leadInLength="0/1"  />
           </VectorParam>
           <VectorParam id="493"  name="geometryCrop">
            <InterpolatingParam id="494" interp="linr"  time="-9999999/1" value="0" leadInLength="0/1"  />
            <InterpolatingParam id="495" interp="linr"  time="-9999999/1" value="0" leadInLength="0/1"  />
            <InterpolatingParam id="496" interp="linr"  time="-9999999/1" value="0" leadInLength="0/1"  />
            <InterpolatingParam id="497" interp="linr"  time="-9999999/1" value="0" leadInLength="0/1"  />
           </VectorParam>
           <InterpolatingParam id="498" interp="linr"  time="-9999999/1" value="1" leadInLength="0/1"  name="opacity"/>
           <InterpolatingParam id="499" interp="linr"  time="0/1" value="1" leadInLength="0/1"  name="cursorOpacity"/>
           <InterpolatingParam id="500" interp="linr"  time="0/1" value="1" leadInLength="0/1"  name="cursorScale"/>
          </Parameters>
          <Effects>
           <GenericEffect id="501" name = "CursorBaseEffectName" >
            <Parameters>
            <InterpolatingParam id="502" interp="linr"  time="-9999999/1" value="1" leadInLength="0/1"   name="cursorSize"/>
            <InterpolatingParam id="503" interp="linr"  time="-9999999/1" value="0" leadInLength="0/1"   name="highlightBlurRadius"/>
            <InterpolatingParam id="504" interp="linr"  time="-9999999/1" value="0" leadInLength="0/1"   name="highlightColorBlue"/>
            <InterpolatingParam id="505" interp="linr"  time="-9999999/1" value="255" leadInLength="0/1"   name="highlightColorGreen"/>
            <InterpolatingParam id="506" interp="linr"  time="-9999999/1" value="255" leadInLength="0/1"   name="highlightColorRed"/>
            <InterpolatingParam id="507" interp="linr"  time="-9999999/1" value="5" leadInLength="0/1"   name="highlightFeatherSize"/>
            <InterpolatingParam id="508" interp="linr"  time="-9999999/1" value="2" leadInLength="0/1"   name="highlightMagnification"/>
            <InterpolatingParam id="509" interp="linr"  time="-9999999/1" value="1" leadInLength="0/1"   name="highlightOpacity"/>
            <InterpolatingParam id="510" interp="linr"  time="-9999999/1" value="45" leadInLength="0/1"   name="highlightSize"/>
            <Parameter id="511"   name="highlightType">
             <Keyframes>
             <Keyframe id="512"  time="-9999999/1" value="0" leadInLength="0/1"  />
             </Keyframes>
            </Parameter>
            <InterpolatingParam id="513" interp="linr"  time="-9999999/1" value="0" leadInLength="0/1"   name="leftClickColorBlue"/>
            <InterpolatingParam id="514" interp="linr"  time="-9999999/1" value="0" leadInLength="0/1"   name="leftClickColorGreen"/>
            <InterpolatingParam id="515" interp="linr"  time="-9999999/1" value="255" leadInLength="0/1"   name="leftClickColorRed"/>
            <InterpolatingParam id="516" interp="linr"  time="-9999999/1" value="0.80000000000000004" leadInLength="0/1"   name="leftClickDuration"/>
            <InterpolatingParam id="517" interp="linr"  time="-9999999/1" value="20" leadInLength="0/1"   name="leftClickSize"/>
            <Parameter id="518"   name="leftClickSoundFilename">
             <Keyframes>
             <Keyframe id="519"  time="-9999999/1" value="" leadInLength="0/1"  />
             </Keyframes>
            </Parameter>
            <InterpolatingParam id="520" interp="linr"  time="-9999999/1" value="1" leadInLength="0/1"   name="leftClickSoundVolume"/>
            <Parameter id="521"   name="leftClickType">
             <Keyframes>
             <Keyframe id="522"  time="-9999999/1" value="0" leadInLength="0/1"  />
             </Keyframes>
            </Parameter>
            <InterpolatingParam id="523" interp="linr"  time="-9999999/1" value="1" leadInLength="0/1"   name="opacity"/>
            <InterpolatingParam id="524" interp="linr"  time="-9999999/1" value="255" leadInLength="0/1"   name="rightClickColorBlue"/>
            <InterpolatingParam id="525" interp="linr"  time="-9999999/1" value="0" leadInLength="0/1"   name="rightClickColorGreen"/>
            <InterpolatingParam id="526" interp="linr"  time="-9999999/1" value="0" leadInLength="0/1"   name="rightClickColorRed"/>
            <InterpolatingParam id="527" interp="linr"  time="-9999999/1" value="0.80000000000000004" leadInLength="0/1"   name="rightClickDuration"/>
            <InterpolatingParam id="528" interp="linr"  time="-9999999/1" value="20" leadInLength="0/1"   name="rightClickSize"/>
            <Parameter id="529"   name="rightClickSoundFilename">
             <Keyframes>
             <Keyframe id="530"  time="-9999999/1" value="" leadInLength="0/1"  />
             </Keyframes>
            </Parameter>
            <InterpolatingParam id="531" interp="linr"  time="-9999999/1" value="1" leadInLength="0/1"   name="rightClickSoundVolume"/>
            <Parameter id="532"   name="rightClickType">
             <Keyframes>
             <Keyframe id="533"  time="-9999999/1" value="0" leadInLength="0/1"  />
             </Keyframes>
            </Parameter>
            </Parameters>
            <MetaData>
             <entry key="effectIndex" val="0"/>
            </MetaData>
           </GenericEffect>
          </Effects>
          <Attributes>
           <Attribute id="534" value="" name="ident"/>
          </Attributes>
          <ExtraData>
           <Entry key="ZoomPanBin">
            <ZoomPanBin id="535"  >
             <ZoomPanKeyframes>
              <ZoomPanKeyframe id="536" timeRangeEnd="-9999999/1" timeRangeDuration="0/1" interpolaterName="linr"  />
             </ZoomPanKeyframes>
            </ZoomPanBin>
           </Entry>
           <Entry key="CursorEffectBin">
            <CursorEffectBin id="537"  >
             <CursorEffectKeyframes>
              <CursorEffectKeyframe id="538" timeRangeEnd="-9999999/1" timeRangeDuration="0/1" interpolaterName=""  />
             </CursorEffectKeyframes>
            </CursorEffectBin>
           </Entry>
          </ExtraData>
         </ScreenVMFile>
         <MetaData>
          <entry key="AutoAppliedSmartFocus" val="False"/>
          <entry key="WinSubProjectDisplayName" val=""/>
         </MetaData>
        </UnifiedMedia>
        <UnifiedMedia id="539"  >
         <AMFile id="540" start="9257" duration="6779" scalar="1/1" mediaStart="0/1" mediaDuration="6779/1" trackNumber="1" src="9" channelNumber="0,1" >
          <Parameters>
           <InterpolatingParam id="541" interp="linr"  time="0/1" value="1" leadInLength="0/1"  name="volume"/>
           <Parameter id="542"  name="captions"/>
          </Parameters>
          <Attributes>
           <Attribute id="543" value="" name="ident"/>
           <Attribute id="544" value="44100" name="sampleRate"/>
           <Attribute id="545" value="16" name="bitDepth"/>
           <Attribute id="546" value="1" name="gain"/>
           <Attribute id="547" value="0" name="mixToMono"/>
          </Attributes>
         </AMFile>
         <ScreenVMFile id="548" start="9257" duration="6779" scalar="1/1" mediaStart="0/1" mediaDuration="6779/1" trackNumber="0" src="9" >
          <Transformer>
           <VectorParam id="549"  name="translation">
            <InterpolatingParam id="550" interp="linr"  time="-9999999/1" value="0" leadInLength="0/1"  />
            <InterpolatingParam id="551" interp="linr"  time="-9999999/1" value="0" leadInLength="0/1"  />
            <InterpolatingParam id="552" interp="linr"  time="-9999999/1" value="0" leadInLength="0/1"  />
           </VectorParam>
           <VectorParam id="553"  name="rotation">
            <InterpolatingParam id="554" interp="linr"  time="-9999999/1" value="0" leadInLength="0/1"  />
            <InterpolatingParam id="555" interp="linr"  time="-9999999/1" value="0" leadInLength="0/1"  />
            <InterpolatingParam id="556" interp="linr"  time="-9999999/1" value="0" leadInLength="0/1"  />
           </VectorParam>
           <VectorParam id="557"  name="shear">
            <InterpolatingParam id="558" interp="linr"  time="-9999999/1" value="0" leadInLength="0/1"  />
            <InterpolatingParam id="559" interp="linr"  time="-9999999/1" value="0" leadInLength="0/1"  />
            <InterpolatingParam id="560" interp="linr"  time="-9999999/1" value="0" leadInLength="0/1"  />
           </VectorParam>
           <VectorParam id="561"  name="scale">
            <InterpolatingParam id="562" interp="linr"  time="-9999999/1" value="0.98901098901098905" leadInLength="0/1"  />
            <InterpolatingParam id="563" interp="linr"  time="-9999999/1" value="0.98901098901098905" leadInLength="0/1"  />
            <InterpolatingParam id="564" interp="linr"  time="-9999999/1" value="1" leadInLength="0/1"  />
           </VectorParam>
           <VectorParam id="565"  name="anchor">
            <InterpolatingParam id="566" interp="linr"  time="0/1" value="0" leadInLength="0/1"  />
            <InterpolatingParam id="567" interp="linr"  time="0/1" value="0" leadInLength="0/1"  />
            <InterpolatingParam id="568" interp="linr"  time="0/1" value="0" leadInLength="0/1"  />
           </VectorParam>
          </Transformer>
          <Parameters>
           <VectorParam id="569"  name="sourceCrop">
            <InterpolatingParam id="570" interp="linr"  time="0/1" value="0" leadInLength="0/1"  />
            <InterpolatingParam id="571" interp="linr"  time="0/1" value="0" leadInLength="0/1"  />
            <InterpolatingParam id="572" interp="linr"  time="0/1" value="0" leadInLength="0/1"  />
            <InterpolatingParam id="573" interp="linr"  time="0/1" value="0" leadInLength="0/1"  />
           </VectorParam>
           <VectorParam id="574"  name="geometryCrop">
            <InterpolatingParam id="575" interp="linr"  time="-9999999/1" value="0" leadInLength="0/1"  />
            <InterpolatingParam id="576" interp="linr"  time="-9999999/1" value="0" leadInLength="0/1"  />
            <InterpolatingParam id="577" interp="linr"  time="-9999999/1" value="0" leadInLength="0/1"  />
            <InterpolatingParam id="578" interp="linr"  time="-9999999/1" value="0" leadInLength="0/1"  />
           </VectorParam>
           <InterpolatingParam id="579" interp="linr"  time="-9999999/1" value="1" leadInLength="0/1"  name="opacity"/>
           <InterpolatingParam id="580" interp="linr"  time="0/1" value="1" leadInLength="0/1"  name="cursorOpacity"/>
           <InterpolatingParam id="581" interp="linr"  time="0/1" value="1" leadInLength="0/1"  name="cursorScale"/>
          </Parameters>
          <Effects>
           <GenericEffect id="582" name = "CursorBaseEffectName" >
            <Parameters>
            <InterpolatingParam id="583" interp="linr"  time="-9999999/1" value="1" leadInLength="0/1"   name="cursorSize"/>
            <InterpolatingParam id="584" interp="linr"  time="-9999999/1" value="0" leadInLength="0/1"   name="highlightBlurRadius"/>
            <InterpolatingParam id="585" interp="linr"  time="-9999999/1" value="0" leadInLength="0/1"   name="highlightColorBlue"/>
            <InterpolatingParam id="586" interp="linr"  time="-9999999/1" value="255" leadInLength="0/1"   name="highlightColorGreen"/>
            <InterpolatingParam id="587" interp="linr"  time="-9999999/1" value="255" leadInLength="0/1"   name="highlightColorRed"/>
            <InterpolatingParam id="588" interp="linr"  time="-9999999/1" value="5" leadInLength="0/1"   name="highlightFeatherSize"/>
            <InterpolatingParam id="589" interp="linr"  time="-9999999/1" value="2" leadInLength="0/1"   name="highlightMagnification"/>
            <InterpolatingParam id="590" interp="linr"  time="-9999999/1" value="1" leadInLength="0/1"   name="highlightOpacity"/>
            <InterpolatingParam id="591" interp="linr"  time="-9999999/1" value="45" leadInLength="0/1"   name="highlightSize"/>
            <Parameter id="592"   name="highlightType">
             <Keyframes>
             <Keyframe id="593"  time="-9999999/1" value="0" leadInLength="0/1"  />
             </Keyframes>
            </Parameter>
            <InterpolatingParam id="594" interp="linr"  time="-9999999/1" value="0" leadInLength="0/1"   name="leftClickColorBlue"/>
            <InterpolatingParam id="595" interp="linr"  time="-9999999/1" value="0" leadInLength="0/1"   name="leftClickColorGreen"/>
            <InterpolatingParam id="596" interp="linr"  time="-9999999/1" value="255" leadInLength="0/1"   name="leftClickColorRed"/>
            <InterpolatingParam id="597" interp="linr"  time="-9999999/1" value="0.80000000000000004" leadInLength="0/1"   name="leftClickDuration"/>
            <InterpolatingParam id="598" interp="linr"  time="-9999999/1" value="20" leadInLength="0/1"   name="leftClickSize"/>
            <Parameter id="599"   name="leftClickSoundFilename">
             <Keyframes>
             <Keyframe id="600"  time="-9999999/1" value="" leadInLength="0/1"  />
             </Keyframes>
            </Parameter>
            <InterpolatingParam id="601" interp="linr"  time="-9999999/1" value="1" leadInLength="0/1"   name="leftClickSoundVolume"/>
            <Parameter id="602"   name="leftClickType">
             <Keyframes>
             <Keyframe id="603"  time="-9999999/1" value="0" leadInLength="0/1"  />
             </Keyframes>
            </Parameter>
            <InterpolatingParam id="604" interp="linr"  time="-9999999/1" value="1" leadInLength="0/1"   name="opacity"/>
            <InterpolatingParam id="605" interp="linr"  time="-9999999/1" value="255" leadInLength="0/1"   name="rightClickColorBlue"/>
            <InterpolatingParam id="606" interp="linr"  time="-9999999/1" value="0" leadInLength="0/1"   name="rightClickColorGreen"/>
            <InterpolatingParam id="607" interp="linr"  time="-9999999/1" value="0" leadInLength="0/1"   name="rightClickColorRed"/>
            <InterpolatingParam id="608" interp="linr"  time="-9999999/1" value="0.80000000000000004" leadInLength="0/1"   name="rightClickDuration"/>
            <InterpolatingParam id="609" interp="linr"  time="-9999999/1" value="20" leadInLength="0/1"   name="rightClickSize"/>
            <Parameter id="610"   name="rightClickSoundFilename">
             <Keyframes>
             <Keyframe id="611"  time="-9999999/1" value="" leadInLength="0/1"  />
             </Keyframes>
            </Parameter>
            <InterpolatingParam id="612" interp="linr"  time="-9999999/1" value="1" leadInLength="0/1"   name="rightClickSoundVolume"/>
            <Parameter id="613"   name="rightClickType">
             <Keyframes>
             <Keyframe id="614"  time="-9999999/1" value="0" leadInLength="0/1"  />
             </Keyframes>
            </Parameter>
            </Parameters>
            <MetaData>
             <entry key="effectIndex" val="0"/>
            </MetaData>
           </GenericEffect>
          </Effects>
          <Attributes>
           <Attribute id="615" value="" name="ident"/>
          </Attributes>
          <ExtraData>
           <Entry key="ZoomPanBin">
            <ZoomPanBin id="616"  >
             <ZoomPanKeyframes>
              <ZoomPanKeyframe id="617" timeRangeEnd="-9999999/1" timeRangeDuration="0/1" interpolaterName="linr"  />
             </ZoomPanKeyframes>
            </ZoomPanBin>
           </Entry>
           <Entry key="CursorEffectBin">
            <CursorEffectBin id="618"  >
             <CursorEffectKeyframes>
              <CursorEffectKeyframe id="619" timeRangeEnd="-9999999/1" timeRangeDuration="0/1" interpolaterName=""  />
             </CursorEffectKeyframes>
            </CursorEffectBin>
           </Entry>
          </ExtraData>
         </ScreenVMFile>
         <MetaData>
          <entry key="AutoAppliedSmartFocus" val="False"/>
          <entry key="WinSubProjectDisplayName" val=""/>
         </MetaData>
        </UnifiedMedia>
        <UnifiedMedia id="620"  >
         <AMFile id="621" start="16036" duration="3420" scalar="1/1" mediaStart="0/1" mediaDuration="3420/1" trackNumber="1" src="10" channelNumber="0,1" >
          <Parameters>
           <InterpolatingParam id="622" interp="linr"  time="0/1" value="1" leadInLength="0/1"  name="volume"/>
           <Parameter id="623"  name="captions"/>
          </Parameters>
          <Attributes>
           <Attribute id="624" value="" name="ident"/>
           <Attribute id="625" value="44100" name="sampleRate"/>
           <Attribute id="626" value="16" name="bitDepth"/>
           <Attribute id="627" value="1" name="gain"/>
           <Attribute id="628" value="0" name="mixToMono"/>
          </Attributes>
         </AMFile>
         <ScreenVMFile id="629" start="16036" duration="3420" scalar="1/1" mediaStart="0/1" mediaDuration="3420/1" trackNumber="0" src="10" >
          <Transformer>
           <VectorParam id="630"  name="translation">
            <InterpolatingParam id="631" interp="linr"  time="-9999999/1" value="0" leadInLength="0/1"  />
            <InterpolatingParam id="632" interp="linr"  time="-9999999/1" value="0" leadInLength="0/1"  />
            <InterpolatingParam id="633" interp="linr"  time="-9999999/1" value="0" leadInLength="0/1"  />
           </VectorParam>
           <VectorParam id="634"  name="rotation">
            <InterpolatingParam id="635" interp="linr"  time="-9999999/1" value="0" leadInLength="0/1"  />
            <InterpolatingParam id="636" interp="linr"  time="-9999999/1" value="0" leadInLength="0/1"  />
            <InterpolatingParam id="637" interp="linr"  time="-9999999/1" value="0" leadInLength="0/1"  />
           </VectorParam>
           <VectorParam id="638"  name="shear">
            <InterpolatingParam id="639" interp="linr"  time="-9999999/1" value="0" leadInLength="0/1"  />
            <InterpolatingParam id="640" interp="linr"  time="-9999999/1" value="0" leadInLength="0/1"  />
            <InterpolatingParam id="641" interp="linr"  time="-9999999/1" value="0" leadInLength="0/1"  />
           </VectorParam>
           <VectorParam id="642"  name="scale">
            <InterpolatingParam id="643" interp="linr"  time="-9999999/1" value="0.98901098901098905" leadInLength="0/1"  />
            <InterpolatingParam id="644" interp="linr"  time="-9999999/1" value="0.98901098901098905" leadInLength="0/1"  />
            <InterpolatingParam id="645" interp="linr"  time="-9999999/1" value="1" leadInLength="0/1"  />
           </VectorParam>
           <VectorParam id="646"  name="anchor">
            <InterpolatingParam id="647" interp="linr"  time="0/1" value="0" leadInLength="0/1"  />
            <InterpolatingParam id="648" interp="linr"  time="0/1" value="0" leadInLength="0/1"  />
            <InterpolatingParam id="649" interp="linr"  time="0/1" value="0" leadInLength="0/1"  />
           </VectorParam>
          </Transformer>
          <Parameters>
           <VectorParam id="650"  name="sourceCrop">
            <InterpolatingParam id="651" interp="linr"  time="0/1" value="0" leadInLength="0/1"  />
            <InterpolatingParam id="652" interp="linr"  time="0/1" value="0" leadInLength="0/1"  />
            <InterpolatingParam id="653" interp="linr"  time="0/1" value="0" leadInLength="0/1"  />
            <InterpolatingParam id="654" interp="linr"  time="0/1" value="0" leadInLength="0/1"  />
           </VectorParam>
           <VectorParam id="655"  name="geometryCrop">
            <InterpolatingParam id="656" interp="linr"  time="-9999999/1" value="0" leadInLength="0/1"  />
            <InterpolatingParam id="657" interp="linr"  time="-9999999/1" value="0" leadInLength="0/1"  />
            <InterpolatingParam id="658" interp="linr"  time="-9999999/1" value="0" leadInLength="0/1"  />
            <InterpolatingParam id="659" interp="linr"  time="-9999999/1" value="0" leadInLength="0/1"  />
           </VectorParam>
           <InterpolatingParam id="660" interp="linr"  time="-9999999/1" value="1" leadInLength="0/1"  name="opacity"/>
           <InterpolatingParam id="661" interp="linr"  time="0/1" value="1" leadInLength="0/1"  name="cursorOpacity"/>
           <InterpolatingParam id="662" interp="linr"  time="0/1" value="1" leadInLength="0/1"  name="cursorScale"/>
          </Parameters>
          <Effects>
           <GenericEffect id="663" name = "CursorBaseEffectName" >
            <Parameters>
            <InterpolatingParam id="664" interp="linr"  time="-9999999/1" value="1" leadInLength="0/1"   name="cursorSize"/>
            <InterpolatingParam id="665" interp="linr"  time="-9999999/1" value="0" leadInLength="0/1"   name="highlightBlurRadius"/>
            <InterpolatingParam id="666" interp="linr"  time="-9999999/1" value="0" leadInLength="0/1"   name="highlightColorBlue"/>
            <InterpolatingParam id="667" interp="linr"  time="-9999999/1" value="255" leadInLength="0/1"   name="highlightColorGreen"/>
            <InterpolatingParam id="668" interp="linr"  time="-9999999/1" value="255" leadInLength="0/1"   name="highlightColorRed"/>
            <InterpolatingParam id="669" interp="linr"  time="-9999999/1" value="5" leadInLength="0/1"   name="highlightFeatherSize"/>
            <InterpolatingParam id="670" interp="linr"  time="-9999999/1" value="2" leadInLength="0/1"   name="highlightMagnification"/>
            <InterpolatingParam id="671" interp="linr"  time="-9999999/1" value="1" leadInLength="0/1"   name="highlightOpacity"/>
            <InterpolatingParam id="672" interp="linr"  time="-9999999/1" value="45" leadInLength="0/1"   name="highlightSize"/>
            <Parameter id="673"   name="highlightType">
             <Keyframes>
             <Keyframe id="674"  time="-9999999/1" value="0" leadInLength="0/1"  />
             </Keyframes>
            </Parameter>
            <InterpolatingParam id="675" interp="linr"  time="-9999999/1" value="0" leadInLength="0/1"   name="leftClickColorBlue"/>
            <InterpolatingParam id="676" interp="linr"  time="-9999999/1" value="0" leadInLength="0/1"   name="leftClickColorGreen"/>
            <InterpolatingParam id="677" interp="linr"  time="-9999999/1" value="255" leadInLength="0/1"   name="leftClickColorRed"/>
            <InterpolatingParam id="678" interp="linr"  time="-9999999/1" value="0.80000000000000004" leadInLength="0/1"   name="leftClickDuration"/>
            <InterpolatingParam id="679" interp="linr"  time="-9999999/1" value="20" leadInLength="0/1"   name="leftClickSize"/>
            <Parameter id="680"   name="leftClickSoundFilename">
             <Keyframes>
             <Keyframe id="681"  time="-9999999/1" value="" leadInLength="0/1"  />
             </Keyframes>
            </Parameter>
            <InterpolatingParam id="682" interp="linr"  time="-9999999/1" value="1" leadInLength="0/1"   name="leftClickSoundVolume"/>
            <Parameter id="683"   name="leftClickType">
             <Keyframes>
             <Keyframe id="684"  time="-9999999/1" value="0" leadInLength="0/1"  />
             </Keyframes>
            </Parameter>
            <InterpolatingParam id="685" interp="linr"  time="-9999999/1" value="1" leadInLength="0/1"   name="opacity"/>
            <InterpolatingParam id="686" interp="linr"  time="-9999999/1" value="255" leadInLength="0/1"   name="rightClickColorBlue"/>
            <InterpolatingParam id="687" interp="linr"  time="-9999999/1" value="0" leadInLength="0/1"   name="rightClickColorGreen"/>
            <InterpolatingParam id="688" interp="linr"  time="-9999999/1" value="0" leadInLength="0/1"   name="rightClickColorRed"/>
            <InterpolatingParam id="689" interp="linr"  time="-9999999/1" value="0.80000000000000004" leadInLength="0/1"   name="rightClickDuration"/>
            <InterpolatingParam id="690" interp="linr"  time="-9999999/1" value="20" leadInLength="0/1"   name="rightClickSize"/>
            <Parameter id="691"   name="rightClickSoundFilename">
             <Keyframes>
             <Keyframe id="692"  time="-9999999/1" value="" leadInLength="0/1"  />
             </Keyframes>
            </Parameter>
            <InterpolatingParam id="693" interp="linr"  time="-9999999/1" value="1" leadInLength="0/1"   name="rightClickSoundVolume"/>
            <Parameter id="694"   name="rightClickType">
             <Keyframes>
             <Keyframe id="695"  time="-9999999/1" value="0" leadInLength="0/1"  />
             </Keyframes>
            </Parameter>
            </Parameters>
            <MetaData>
             <entry key="effectIndex" val="0"/>
            </MetaData>
           </GenericEffect>
          </Effects>
          <Attributes>
           <Attribute id="696" value="" name="ident"/>
          </Attributes>
          <ExtraData>
           <Entry key="ZoomPanBin">
            <ZoomPanBin id="697"  >
             <ZoomPanKeyframes>
              <ZoomPanKeyframe id="698" timeRangeEnd="-9999999/1" timeRangeDuration="0/1" interpolaterName="linr"  />
             </ZoomPanKeyframes>
            </ZoomPanBin>
           </Entry>
           <Entry key="CursorEffectBin">
            <CursorEffectBin id="699"  >
             <CursorEffectKeyframes>
              <CursorEffectKeyframe id="700" timeRangeEnd="-9999999/1" timeRangeDuration="0/1" interpolaterName=""  />
             </CursorEffectKeyframes>
            </CursorEffectBin>
           </Entry>
          </ExtraData>
         </ScreenVMFile>
         <MetaData>
          <entry key="AutoAppliedSmartFocus" val="False"/>
          <entry key="WinSubProjectDisplayName" val=""/>
         </MetaData>
        </UnifiedMedia>
        <UnifiedMedia id="701"  >
         <AMFile id="702" start="19456" duration="4621" scalar="1/1" mediaStart="0/1" mediaDuration="4621/1" trackNumber="1" src="11" channelNumber="0,1" >
          <Parameters>
           <InterpolatingParam id="703" interp="linr"  time="0/1" value="1" leadInLength="0/1"  name="volume"/>
           <Parameter id="704"  name="captions"/>
          </Parameters>
          <Attributes>
           <Attribute id="705" value="" name="ident"/>
           <Attribute id="706" value="44100" name="sampleRate"/>
           <Attribute id="707" value="16" name="bitDepth"/>
           <Attribute id="708" value="1" name="gain"/>
           <Attribute id="709" value="0" name="mixToMono"/>
          </Attributes>
         </AMFile>
         <ScreenVMFile id="710" start="19456" duration="4621" scalar="1/1" mediaStart="0/1" mediaDuration="4621/1" trackNumber="0" src="11" >
          <Transformer>
           <VectorParam id="711"  name="translation">
            <InterpolatingParam id="712" interp="linr"  time="-9999999/1" value="0" leadInLength="0/1"  />
            <InterpolatingParam id="713" interp="linr"  time="-9999999/1" value="0" leadInLength="0/1"  />
            <InterpolatingParam id="714" interp="linr"  time="-9999999/1" value="0" leadInLength="0/1"  />
           </VectorParam>
           <VectorParam id="715"  name="rotation">
            <InterpolatingParam id="716" interp="linr"  time="-9999999/1" value="0" leadInLength="0/1"  />
            <InterpolatingParam id="717" interp="linr"  time="-9999999/1" value="0" leadInLength="0/1"  />
            <InterpolatingParam id="718" interp="linr"  time="-9999999/1" value="0" leadInLength="0/1"  />
           </VectorParam>
           <VectorParam id="719"  name="shear">
            <InterpolatingParam id="720" interp="linr"  time="-9999999/1" value="0" leadInLength="0/1"  />
            <InterpolatingParam id="721" interp="linr"  time="-9999999/1" value="0" leadInLength="0/1"  />
            <InterpolatingParam id="722" interp="linr"  time="-9999999/1" value="0" leadInLength="0/1"  />
           </VectorParam>
           <VectorParam id="723"  name="scale">
            <InterpolatingParam id="724" interp="linr"  time="-9999999/1" value="0.98901098901098905" leadInLength="0/1"  />
            <InterpolatingParam id="725" interp="linr"  time="-9999999/1" value="0.98901098901098905" leadInLength="0/1"  />
            <InterpolatingParam id="726" interp="linr"  time="-9999999/1" value="1" leadInLength="0/1"  />
           </VectorParam>
           <VectorParam id="727"  name="anchor">
            <InterpolatingParam id="728" interp="linr"  time="0/1" value="0" leadInLength="0/1"  />
            <InterpolatingParam id="729" interp="linr"  time="0/1" value="0" leadInLength="0/1"  />
            <InterpolatingParam id="730" interp="linr"  time="0/1" value="0" leadInLength="0/1"  />
           </VectorParam>
          </Transformer>
          <Parameters>
           <VectorParam id="731"  name="sourceCrop">
            <InterpolatingParam id="732" interp="linr"  time="0/1" value="0" leadInLength="0/1"  />
            <InterpolatingParam id="733" interp="linr"  time="0/1" value="0" leadInLength="0/1"  />
            <InterpolatingParam id="734" interp="linr"  time="0/1" value="0" leadInLength="0/1"  />
            <InterpolatingParam id="735" interp="linr"  time="0/1" value="0" leadInLength="0/1"  />
           </VectorParam>
           <VectorParam id="736"  name="geometryCrop">
            <InterpolatingParam id="737" interp="linr"  time="-9999999/1" value="0" leadInLength="0/1"  />
            <InterpolatingParam id="738" interp="linr"  time="-9999999/1" value="0" leadInLength="0/1"  />
            <InterpolatingParam id="739" interp="linr"  time="-9999999/1" value="0" leadInLength="0/1"  />
            <InterpolatingParam id="740" interp="linr"  time="-9999999/1" value="0" leadInLength="0/1"  />
           </VectorParam>
           <InterpolatingParam id="741" interp="linr"  time="-9999999/1" value="1" leadInLength="0/1"  name="opacity"/>
           <InterpolatingParam id="742" interp="linr"  time="0/1" value="1" leadInLength="0/1"  name="cursorOpacity"/>
           <InterpolatingParam id="743" interp="linr"  time="0/1" value="1" leadInLength="0/1"  name="cursorScale"/>
          </Parameters>
          <Effects>
           <GenericEffect id="744" name = "CursorBaseEffectName" >
            <Parameters>
            <InterpolatingParam id="745" interp="linr"  time="-9999999/1" value="1" leadInLength="0/1"   name="cursorSize"/>
            <InterpolatingParam id="746" interp="linr"  time="-9999999/1" value="0" leadInLength="0/1"   name="highlightBlurRadius"/>
            <InterpolatingParam id="747" interp="linr"  time="-9999999/1" value="0" leadInLength="0/1"   name="highlightColorBlue"/>
            <InterpolatingParam id="748" interp="linr"  time="-9999999/1" value="255" leadInLength="0/1"   name="highlightColorGreen"/>
            <InterpolatingParam id="749" interp="linr"  time="-9999999/1" value="255" leadInLength="0/1"   name="highlightColorRed"/>
            <InterpolatingParam id="750" interp="linr"  time="-9999999/1" value="5" leadInLength="0/1"   name="highlightFeatherSize"/>
            <InterpolatingParam id="751" interp="linr"  time="-9999999/1" value="2" leadInLength="0/1"   name="highlightMagnification"/>
            <InterpolatingParam id="752" interp="linr"  time="-9999999/1" value="1" leadInLength="0/1"   name="highlightOpacity"/>
            <InterpolatingParam id="753" interp="linr"  time="-9999999/1" value="45" leadInLength="0/1"   name="highlightSize"/>
            <Parameter id="754"   name="highlightType">
             <Keyframes>
             <Keyframe id="755"  time="-9999999/1" value="0" leadInLength="0/1"  />
             </Keyframes>
            </Parameter>
            <InterpolatingParam id="756" interp="linr"  time="-9999999/1" value="0" leadInLength="0/1"   name="leftClickColorBlue"/>
            <InterpolatingParam id="757" interp="linr"  time="-9999999/1" value="0" leadInLength="0/1"   name="leftClickColorGreen"/>
            <InterpolatingParam id="758" interp="linr"  time="-9999999/1" value="255" leadInLength="0/1"   name="leftClickColorRed"/>
            <InterpolatingParam id="759" interp="linr"  time="-9999999/1" value="0.80000000000000004" leadInLength="0/1"   name="leftClickDuration"/>
            <InterpolatingParam id="760" interp="linr"  time="-9999999/1" value="20" leadInLength="0/1"   name="leftClickSize"/>
            <Parameter id="761"   name="leftClickSoundFilename">
             <Keyframes>
             <Keyframe id="762"  time="-9999999/1" value="" leadInLength="0/1"  />
             </Keyframes>
            </Parameter>
            <InterpolatingParam id="763" interp="linr"  time="-9999999/1" value="1" leadInLength="0/1"   name="leftClickSoundVolume"/>
            <Parameter id="764"   name="leftClickType">
             <Keyframes>
             <Keyframe id="765"  time="-9999999/1" value="0" leadInLength="0/1"  />
             </Keyframes>
            </Parameter>
            <InterpolatingParam id="766" interp="linr"  time="-9999999/1" value="1" leadInLength="0/1"   name="opacity"/>
            <InterpolatingParam id="767" interp="linr"  time="-9999999/1" value="255" leadInLength="0/1"   name="rightClickColorBlue"/>
            <InterpolatingParam id="768" interp="linr"  time="-9999999/1" value="0" leadInLength="0/1"   name="rightClickColorGreen"/>
            <InterpolatingParam id="769" interp="linr"  time="-9999999/1" value="0" leadInLength="0/1"   name="rightClickColorRed"/>
            <InterpolatingParam id="770" interp="linr"  time="-9999999/1" value="0.80000000000000004" leadInLength="0/1"   name="rightClickDuration"/>
            <InterpolatingParam id="771" interp="linr"  time="-9999999/1" value="20" leadInLength="0/1"   name="rightClickSize"/>
            <Parameter id="772"   name="rightClickSoundFilename">
             <Keyframes>
             <Keyframe id="773"  time="-9999999/1" value="" leadInLength="0/1"  />
             </Keyframes>
            </Parameter>
            <InterpolatingParam id="774" interp="linr"  time="-9999999/1" value="1" leadInLength="0/1"   name="rightClickSoundVolume"/>
            <Parameter id="775"   name="rightClickType">
             <Keyframes>
             <Keyframe id="776"  time="-9999999/1" value="0" leadInLength="0/1"  />
             </Keyframes>
            </Parameter>
            </Parameters>
            <MetaData>
             <entry key="effectIndex" val="0"/>
            </MetaData>
           </GenericEffect>
          </Effects>
          <Attributes>
           <Attribute id="777" value="" name="ident"/>
          </Attributes>
          <ExtraData>
           <Entry key="ZoomPanBin">
            <ZoomPanBin id="778"  >
             <ZoomPanKeyframes>
              <ZoomPanKeyframe id="779" timeRangeEnd="-9999999/1" timeRangeDuration="0/1" interpolaterName="linr"  />
             </ZoomPanKeyframes>
            </ZoomPanBin>
           </Entry>
           <Entry key="CursorEffectBin">
            <CursorEffectBin id="780"  >
             <CursorEffectKeyframes>
              <CursorEffectKeyframe id="781" timeRangeEnd="-9999999/1" timeRangeDuration="0/1" interpolaterName=""  />
             </CursorEffectKeyframes>
            </CursorEffectBin>
           </Entry>
          </ExtraData>
         </ScreenVMFile>
         <MetaData>
          <entry key="AutoAppliedSmartFocus" val="False"/>
          <entry key="WinSubProjectDisplayName" val=""/>
         </MetaData>
        </UnifiedMedia>
        <UnifiedMedia id="782"  >
         <AMFile id="783" start="24077" duration="2956" scalar="1/1" mediaStart="0/1" mediaDuration="2956/1" trackNumber="1" src="12" channelNumber="0,1" >
          <Parameters>
           <InterpolatingParam id="784" interp="linr"  time="0/1" value="1" leadInLength="0/1"  name="volume"/>
           <Parameter id="785"  name="captions"/>
          </Parameters>
          <Attributes>
           <Attribute id="786" value="" name="ident"/>
           <Attribute id="787" value="44100" name="sampleRate"/>
           <Attribute id="788" value="16" name="bitDepth"/>
           <Attribute id="789" value="1" name="gain"/>
           <Attribute id="790" value="0" name="mixToMono"/>
          </Attributes>
         </AMFile>
         <ScreenVMFile id="791" start="24077" duration="2956" scalar="1/1" mediaStart="0/1" mediaDuration="2956/1" trackNumber="0" src="12" >
          <Transformer>
           <VectorParam id="792"  name="translation">
            <InterpolatingParam id="793" interp="linr"  time="-9999999/1" value="0" leadInLength="0/1"  />
            <InterpolatingParam id="794" interp="linr"  time="-9999999/1" value="0" leadInLength="0/1"  />
            <InterpolatingParam id="795" interp="linr"  time="-9999999/1" value="0" leadInLength="0/1"  />
           </VectorParam>
           <VectorParam id="796"  name="rotation">
            <InterpolatingParam id="797" interp="linr"  time="-9999999/1" value="0" leadInLength="0/1"  />
            <InterpolatingParam id="798" interp="linr"  time="-9999999/1" value="0" leadInLength="0/1"  />
            <InterpolatingParam id="799" interp="linr"  time="-9999999/1" value="0" leadInLength="0/1"  />
           </VectorParam>
           <VectorParam id="800"  name="shear">
            <InterpolatingParam id="801" interp="linr"  time="-9999999/1" value="0" leadInLength="0/1"  />
            <InterpolatingParam id="802" interp="linr"  time="-9999999/1" value="0" leadInLength="0/1"  />
            <InterpolatingParam id="803" interp="linr"  time="-9999999/1" value="0" leadInLength="0/1"  />
           </VectorParam>
           <VectorParam id="804"  name="scale">
            <InterpolatingParam id="805" interp="linr"  time="-9999999/1" value="0.98901098901098905" leadInLength="0/1"  />
            <InterpolatingParam id="806" interp="linr"  time="-9999999/1" value="0.98901098901098905" leadInLength="0/1"  />
            <InterpolatingParam id="807" interp="linr"  time="-9999999/1" value="1" leadInLength="0/1"  />
           </VectorParam>
           <VectorParam id="808"  name="anchor">
            <InterpolatingParam id="809" interp="linr"  time="0/1" value="0" leadInLength="0/1"  />
            <InterpolatingParam id="810" interp="linr"  time="0/1" value="0" leadInLength="0/1"  />
            <InterpolatingParam id="811" interp="linr"  time="0/1" value="0" leadInLength="0/1"  />
           </VectorParam>
          </Transformer>
          <Parameters>
           <VectorParam id="812"  name="sourceCrop">
            <InterpolatingParam id="813" interp="linr"  time="0/1" value="0" leadInLength="0/1"  />
            <InterpolatingParam id="814" interp="linr"  time="0/1" value="0" leadInLength="0/1"  />
            <InterpolatingParam id="815" interp="linr"  time="0/1" value="0" leadInLength="0/1"  />
            <InterpolatingParam id="816" interp="linr"  time="0/1" value="0" leadInLength="0/1"  />
           </VectorParam>
           <VectorParam id="817"  name="geometryCrop">
            <InterpolatingParam id="818" interp="linr"  time="-9999999/1" value="0" leadInLength="0/1"  />
            <InterpolatingParam id="819" interp="linr"  time="-9999999/1" value="0" leadInLength="0/1"  />
            <InterpolatingParam id="820" interp="linr"  time="-9999999/1" value="0" leadInLength="0/1"  />
            <InterpolatingParam id="821" interp="linr"  time="-9999999/1" value="0" leadInLength="0/1"  />
           </VectorParam>
           <InterpolatingParam id="822" interp="linr"  time="-9999999/1" value="1" leadInLength="0/1"  name="opacity"/>
           <InterpolatingParam id="823" interp="linr"  time="0/1" value="1" leadInLength="0/1"  name="cursorOpacity"/>
           <InterpolatingParam id="824" interp="linr"  time="0/1" value="1" leadInLength="0/1"  name="cursorScale"/>
          </Parameters>
          <Effects>
           <GenericEffect id="825" name = "CursorBaseEffectName" >
            <Parameters>
            <InterpolatingParam id="826" interp="linr"  time="-9999999/1" value="1" leadInLength="0/1"   name="cursorSize"/>
            <InterpolatingParam id="827" interp="linr"  time="-9999999/1" value="0" leadInLength="0/1"   name="highlightBlurRadius"/>
            <InterpolatingParam id="828" interp="linr"  time="-9999999/1" value="0" leadInLength="0/1"   name="highlightColorBlue"/>
            <InterpolatingParam id="829" interp="linr"  time="-9999999/1" value="255" leadInLength="0/1"   name="highlightColorGreen"/>
            <InterpolatingParam id="830" interp="linr"  time="-9999999/1" value="255" leadInLength="0/1"   name="highlightColorRed"/>
            <InterpolatingParam id="831" interp="linr"  time="-9999999/1" value="5" leadInLength="0/1"   name="highlightFeatherSize"/>
            <InterpolatingParam id="832" interp="linr"  time="-9999999/1" value="2" leadInLength="0/1"   name="highlightMagnification"/>
            <InterpolatingParam id="833" interp="linr"  time="-9999999/1" value="1" leadInLength="0/1"   name="highlightOpacity"/>
            <InterpolatingParam id="834" interp="linr"  time="-9999999/1" value="45" leadInLength="0/1"   name="highlightSize"/>
            <Parameter id="835"   name="highlightType">
             <Keyframes>
             <Keyframe id="836"  time="-9999999/1" value="0" leadInLength="0/1"  />
             </Keyframes>
            </Parameter>
            <InterpolatingParam id="837" interp="linr"  time="-9999999/1" value="0" leadInLength="0/1"   name="leftClickColorBlue"/>
            <InterpolatingParam id="838" interp="linr"  time="-9999999/1" value="0" leadInLength="0/1"   name="leftClickColorGreen"/>
            <InterpolatingParam id="839" interp="linr"  time="-9999999/1" value="255" leadInLength="0/1"   name="leftClickColorRed"/>
            <InterpolatingParam id="840" interp="linr"  time="-9999999/1" value="0.80000000000000004" leadInLength="0/1"   name="leftClickDuration"/>
            <InterpolatingParam id="841" interp="linr"  time="-9999999/1" value="20" leadInLength="0/1"   name="leftClickSize"/>
            <Parameter id="842"   name="leftClickSoundFilename">
             <Keyframes>
             <Keyframe id="843"  time="-9999999/1" value="" leadInLength="0/1"  />
             </Keyframes>
            </Parameter>
            <InterpolatingParam id="844" interp="linr"  time="-9999999/1" value="1" leadInLength="0/1"   name="leftClickSoundVolume"/>
            <Parameter id="845"   name="leftClickType">
             <Keyframes>
             <Keyframe id="846"  time="-9999999/1" value="0" leadInLength="0/1"  />
             </Keyframes>
            </Parameter>
            <InterpolatingParam id="847" interp="linr"  time="-9999999/1" value="1" leadInLength="0/1"   name="opacity"/>
            <InterpolatingParam id="848" interp="linr"  time="-9999999/1" value="255" leadInLength="0/1"   name="rightClickColorBlue"/>
            <InterpolatingParam id="849" interp="linr"  time="-9999999/1" value="0" leadInLength="0/1"   name="rightClickColorGreen"/>
            <InterpolatingParam id="850" interp="linr"  time="-9999999/1" value="0" leadInLength="0/1"   name="rightClickColorRed"/>
            <InterpolatingParam id="851" interp="linr"  time="-9999999/1" value="0.80000000000000004" leadInLength="0/1"   name="rightClickDuration"/>
            <InterpolatingParam id="852" interp="linr"  time="-9999999/1" value="20" leadInLength="0/1"   name="rightClickSize"/>
            <Parameter id="853"   name="rightClickSoundFilename">
             <Keyframes>
             <Keyframe id="854"  time="-9999999/1" value="" leadInLength="0/1"  />
             </Keyframes>
            </Parameter>
            <InterpolatingParam id="855" interp="linr"  time="-9999999/1" value="1" leadInLength="0/1"   name="rightClickSoundVolume"/>
            <Parameter id="856"   name="rightClickType">
             <Keyframes>
             <Keyframe id="857"  time="-9999999/1" value="0" leadInLength="0/1"  />
             </Keyframes>
            </Parameter>
            </Parameters>
            <MetaData>
             <entry key="effectIndex" val="0"/>
            </MetaData>
           </GenericEffect>
          </Effects>
          <Attributes>
           <Attribute id="858" value="" name="ident"/>
          </Attributes>
          <ExtraData>
           <Entry key="ZoomPanBin">
            <ZoomPanBin id="859"  >
             <ZoomPanKeyframes>
              <ZoomPanKeyframe id="860" timeRangeEnd="-9999999/1" timeRangeDuration="0/1" interpolaterName="linr"  />
             </ZoomPanKeyframes>
            </ZoomPanBin>
           </Entry>
           <Entry key="CursorEffectBin">
            <CursorEffectBin id="861"  >
             <CursorEffectKeyframes>
              <CursorEffectKeyframe id="862" timeRangeEnd="-9999999/1" timeRangeDuration="0/1" interpolaterName=""  />
             </CursorEffectKeyframes>
            </CursorEffectBin>
           </Entry>
          </ExtraData>
         </ScreenVMFile>
         <MetaData>
          <entry key="AutoAppliedSmartFocus" val="False"/>
          <entry key="WinSubProjectDisplayName" val=""/>
         </MetaData>
        </UnifiedMedia>
        <UnifiedMedia id="863"  >
         <AMFile id="864" start="27033" duration="2686" scalar="1/1" mediaStart="0/1" mediaDuration="2686/1" trackNumber="1" src="13" channelNumber="0,1" >
          <Parameters>
           <InterpolatingParam id="865" interp="linr"  time="0/1" value="1" leadInLength="0/1"  name="volume"/>
           <Parameter id="866"  name="captions"/>
          </Parameters>
          <Attributes>
           <Attribute id="867" value="" name="ident"/>
           <Attribute id="868" value="44100" name="sampleRate"/>
           <Attribute id="869" value="16" name="bitDepth"/>
           <Attribute id="870" value="1" name="gain"/>
           <Attribute id="871" value="0" name="mixToMono"/>
          </Attributes>
         </AMFile>
         <ScreenVMFile id="872" start="27033" duration="2686" scalar="1/1" mediaStart="0/1" mediaDuration="2686/1" trackNumber="0" src="13" >
          <Transformer>
           <VectorParam id="873"  name="translation">
            <InterpolatingParam id="874" interp="linr"  time="-9999999/1" value="0" leadInLength="0/1"  />
            <InterpolatingParam id="875" interp="linr"  time="-9999999/1" value="0" leadInLength="0/1"  />
            <InterpolatingParam id="876" interp="linr"  time="-9999999/1" value="0" leadInLength="0/1"  />
           </VectorParam>
           <VectorParam id="877"  name="rotation">
            <InterpolatingParam id="878" interp="linr"  time="-9999999/1" value="0" leadInLength="0/1"  />
            <InterpolatingParam id="879" interp="linr"  time="-9999999/1" value="0" leadInLength="0/1"  />
            <InterpolatingParam id="880" interp="linr"  time="-9999999/1" value="0" leadInLength="0/1"  />
           </VectorParam>
           <VectorParam id="881"  name="shear">
            <InterpolatingParam id="882" interp="linr"  time="-9999999/1" value="0" leadInLength="0/1"  />
            <InterpolatingParam id="883" interp="linr"  time="-9999999/1" value="0" leadInLength="0/1"  />
            <InterpolatingParam id="884" interp="linr"  time="-9999999/1" value="0" leadInLength="0/1"  />
           </VectorParam>
           <VectorParam id="885"  name="scale">
            <InterpolatingParam id="886" interp="linr"  time="-9999999/1" value="0.98901098901098905" leadInLength="0/1"  />
            <InterpolatingParam id="887" interp="linr"  time="-9999999/1" value="0.98901098901098905" leadInLength="0/1"  />
            <InterpolatingParam id="888" interp="linr"  time="-9999999/1" value="1" leadInLength="0/1"  />
           </VectorParam>
           <VectorParam id="889"  name="anchor">
            <InterpolatingParam id="890" interp="linr"  time="0/1" value="0" leadInLength="0/1"  />
            <InterpolatingParam id="891" interp="linr"  time="0/1" value="0" leadInLength="0/1"  />
            <InterpolatingParam id="892" interp="linr"  time="0/1" value="0" leadInLength="0/1"  />
           </VectorParam>
          </Transformer>
          <Parameters>
           <VectorParam id="893"  name="sourceCrop">
            <InterpolatingParam id="894" interp="linr"  time="0/1" value="0" leadInLength="0/1"  />
            <InterpolatingParam id="895" interp="linr"  time="0/1" value="0" leadInLength="0/1"  />
            <InterpolatingParam id="896" interp="linr"  time="0/1" value="0" leadInLength="0/1"  />
            <InterpolatingParam id="897" interp="linr"  time="0/1" value="0" leadInLength="0/1"  />
           </VectorParam>
           <VectorParam id="898"  name="geometryCrop">
            <InterpolatingParam id="899" interp="linr"  time="-9999999/1" value="0" leadInLength="0/1"  />
            <InterpolatingParam id="900" interp="linr"  time="-9999999/1" value="0" leadInLength="0/1"  />
            <InterpolatingParam id="901" interp="linr"  time="-9999999/1" value="0" leadInLength="0/1"  />
            <InterpolatingParam id="902" interp="linr"  time="-9999999/1" value="0" leadInLength="0/1"  />
           </VectorParam>
           <InterpolatingParam id="903" interp="linr"  time="-9999999/1" value="1" leadInLength="0/1"  name="opacity"/>
           <InterpolatingParam id="904" interp="linr"  time="0/1" value="1" leadInLength="0/1"  name="cursorOpacity"/>
           <InterpolatingParam id="905" interp="linr"  time="0/1" value="1" leadInLength="0/1"  name="cursorScale"/>
          </Parameters>
          <Effects>
           <GenericEffect id="906" name = "CursorBaseEffectName" >
            <Parameters>
            <InterpolatingParam id="907" interp="linr"  time="-9999999/1" value="1" leadInLength="0/1"   name="cursorSize"/>
            <InterpolatingParam id="908" interp="linr"  time="-9999999/1" value="0" leadInLength="0/1"   name="highlightBlurRadius"/>
            <InterpolatingParam id="909" interp="linr"  time="-9999999/1" value="0" leadInLength="0/1"   name="highlightColorBlue"/>
            <InterpolatingParam id="910" interp="linr"  time="-9999999/1" value="255" leadInLength="0/1"   name="highlightColorGreen"/>
            <InterpolatingParam id="911" interp="linr"  time="-9999999/1" value="255" leadInLength="0/1"   name="highlightColorRed"/>
            <InterpolatingParam id="912" interp="linr"  time="-9999999/1" value="5" leadInLength="0/1"   name="highlightFeatherSize"/>
            <InterpolatingParam id="913" interp="linr"  time="-9999999/1" value="2" leadInLength="0/1"   name="highlightMagnification"/>
            <InterpolatingParam id="914" interp="linr"  time="-9999999/1" value="1" leadInLength="0/1"   name="highlightOpacity"/>
            <InterpolatingParam id="915" interp="linr"  time="-9999999/1" value="45" leadInLength="0/1"   name="highlightSize"/>
            <Parameter id="916"   name="highlightType">
             <Keyframes>
             <Keyframe id="917"  time="-9999999/1" value="0" leadInLength="0/1"  />
             </Keyframes>
            </Parameter>
            <InterpolatingParam id="918" interp="linr"  time="-9999999/1" value="0" leadInLength="0/1"   name="leftClickColorBlue"/>
            <InterpolatingParam id="919" interp="linr"  time="-9999999/1" value="0" leadInLength="0/1"   name="leftClickColorGreen"/>
            <InterpolatingParam id="920" interp="linr"  time="-9999999/1" value="255" leadInLength="0/1"   name="leftClickColorRed"/>
            <InterpolatingParam id="921" interp="linr"  time="-9999999/1" value="0.80000000000000004" leadInLength="0/1"   name="leftClickDuration"/>
            <InterpolatingParam id="922" interp="linr"  time="-9999999/1" value="20" leadInLength="0/1"   name="leftClickSize"/>
            <Parameter id="923"   name="leftClickSoundFilename">
             <Keyframes>
             <Keyframe id="924"  time="-9999999/1" value="" leadInLength="0/1"  />
             </Keyframes>
            </Parameter>
            <InterpolatingParam id="925" interp="linr"  time="-9999999/1" value="1" leadInLength="0/1"   name="leftClickSoundVolume"/>
            <Parameter id="926"   name="leftClickType">
             <Keyframes>
             <Keyframe id="927"  time="-9999999/1" value="0" leadInLength="0/1"  />
             </Keyframes>
            </Parameter>
            <InterpolatingParam id="928" interp="linr"  time="-9999999/1" value="1" leadInLength="0/1"   name="opacity"/>
            <InterpolatingParam id="929" interp="linr"  time="-9999999/1" value="255" leadInLength="0/1"   name="rightClickColorBlue"/>
            <InterpolatingParam id="930" interp="linr"  time="-9999999/1" value="0" leadInLength="0/1"   name="rightClickColorGreen"/>
            <InterpolatingParam id="931" interp="linr"  time="-9999999/1" value="0" leadInLength="0/1"   name="rightClickColorRed"/>
            <InterpolatingParam id="932" interp="linr"  time="-9999999/1" value="0.80000000000000004" leadInLength="0/1"   name="rightClickDuration"/>
            <InterpolatingParam id="933" interp="linr"  time="-9999999/1" value="20" leadInLength="0/1"   name="rightClickSize"/>
            <Parameter id="934"   name="rightClickSoundFilename">
             <Keyframes>
             <Keyframe id="935"  time="-9999999/1" value="" leadInLength="0/1"  />
             </Keyframes>
            </Parameter>
            <InterpolatingParam id="936" interp="linr"  time="-9999999/1" value="1" leadInLength="0/1"   name="rightClickSoundVolume"/>
            <Parameter id="937"   name="rightClickType">
             <Keyframes>
             <Keyframe id="938"  time="-9999999/1" value="0" leadInLength="0/1"  />
             </Keyframes>
            </Parameter>
            </Parameters>
            <MetaData>
             <entry key="effectIndex" val="0"/>
            </MetaData>
           </GenericEffect>
          </Effects>
          <Attributes>
           <Attribute id="939" value="" name="ident"/>
          </Attributes>
          <ExtraData>
           <Entry key="ZoomPanBin">
            <ZoomPanBin id="940"  >
             <ZoomPanKeyframes>
              <ZoomPanKeyframe id="941" timeRangeEnd="-9999999/1" timeRangeDuration="0/1" interpolaterName="linr"  />
             </ZoomPanKeyframes>
            </ZoomPanBin>
           </Entry>
           <Entry key="CursorEffectBin">
            <CursorEffectBin id="942"  >
             <CursorEffectKeyframes>
              <CursorEffectKeyframe id="943" timeRangeEnd="-9999999/1" timeRangeDuration="0/1" interpolaterName=""  />
             </CursorEffectKeyframes>
            </CursorEffectBin>
           </Entry>
          </ExtraData>
         </ScreenVMFile>
         <MetaData>
          <entry key="AutoAppliedSmartFocus" val="False"/>
          <entry key="WinSubProjectDisplayName" val=""/>
         </MetaData>
        </UnifiedMedia>
        <UnifiedMedia id="944"  >
         <AMFile id="945" start="29719" duration="2596" scalar="1/1" mediaStart="0/1" mediaDuration="2596/1" trackNumber="1" src="14" channelNumber="0,1" >
          <Parameters>
           <InterpolatingParam id="946" interp="linr"  time="0/1" value="1" leadInLength="0/1"  name="volume"/>
           <Parameter id="947"  name="captions"/>
          </Parameters>
          <Attributes>
           <Attribute id="948" value="" name="ident"/>
           <Attribute id="949" value="44100" name="sampleRate"/>
           <Attribute id="950" value="16" name="bitDepth"/>
           <Attribute id="951" value="1" name="gain"/>
           <Attribute id="952" value="0" name="mixToMono"/>
          </Attributes>
         </AMFile>
         <ScreenVMFile id="953" start="29719" duration="2596" scalar="1/1" mediaStart="0/1" mediaDuration="2596/1" trackNumber="0" src="14" >
          <Transformer>
           <VectorParam id="954"  name="translation">
            <InterpolatingParam id="955" interp="linr"  time="-9999999/1" value="0" leadInLength="0/1"  />
            <InterpolatingParam id="956" interp="linr"  time="-9999999/1" value="0" leadInLength="0/1"  />
            <InterpolatingParam id="957" interp="linr"  time="-9999999/1" value="0" leadInLength="0/1"  />
           </VectorParam>
           <VectorParam id="958"  name="rotation">
            <InterpolatingParam id="959" interp="linr"  time="-9999999/1" value="0" leadInLength="0/1"  />
            <InterpolatingParam id="960" interp="linr"  time="-9999999/1" value="0" leadInLength="0/1"  />
            <InterpolatingParam id="961" interp="linr"  time="-9999999/1" value="0" leadInLength="0/1"  />
           </VectorParam>
           <VectorParam id="962"  name="shear">
            <InterpolatingParam id="963" interp="linr"  time="-9999999/1" value="0" leadInLength="0/1"  />
            <InterpolatingParam id="964" interp="linr"  time="-9999999/1" value="0" leadInLength="0/1"  />
            <InterpolatingParam id="965" interp="linr"  time="-9999999/1" value="0" leadInLength="0/1"  />
           </VectorParam>
           <VectorParam id="966"  name="scale">
            <InterpolatingParam id="967" interp="linr"  time="-9999999/1" value="0.98901098901098905" leadInLength="0/1"  />
            <InterpolatingParam id="968" interp="linr"  time="-9999999/1" value="0.98901098901098905" leadInLength="0/1"  />
            <InterpolatingParam id="969" interp="linr"  time="-9999999/1" value="1" leadInLength="0/1"  />
           </VectorParam>
           <VectorParam id="970"  name="anchor">
            <InterpolatingParam id="971" interp="linr"  time="0/1" value="0" leadInLength="0/1"  />
            <InterpolatingParam id="972" interp="linr"  time="0/1" value="0" leadInLength="0/1"  />
            <InterpolatingParam id="973" interp="linr"  time="0/1" value="0" leadInLength="0/1"  />
           </VectorParam>
          </Transformer>
          <Parameters>
           <VectorParam id="974"  name="sourceCrop">
            <InterpolatingParam id="975" interp="linr"  time="0/1" value="0" leadInLength="0/1"  />
            <InterpolatingParam id="976" interp="linr"  time="0/1" value="0" leadInLength="0/1"  />
            <InterpolatingParam id="977" interp="linr"  time="0/1" value="0" leadInLength="0/1"  />
            <InterpolatingParam id="978" interp="linr"  time="0/1" value="0" leadInLength="0/1"  />
           </VectorParam>
           <VectorParam id="979"  name="geometryCrop">
            <InterpolatingParam id="980" interp="linr"  time="-9999999/1" value="0" leadInLength="0/1"  />
            <InterpolatingParam id="981" interp="linr"  time="-9999999/1" value="0" leadInLength="0/1"  />
            <InterpolatingParam id="982" interp="linr"  time="-9999999/1" value="0" leadInLength="0/1"  />
            <InterpolatingParam id="983" interp="linr"  time="-9999999/1" value="0" leadInLength="0/1"  />
           </VectorParam>
           <InterpolatingParam id="984" interp="linr"  time="-9999999/1" value="1" leadInLength="0/1"  name="opacity"/>
           <InterpolatingParam id="985" interp="linr"  time="0/1" value="1" leadInLength="0/1"  name="cursorOpacity"/>
           <InterpolatingParam id="986" interp="linr"  time="0/1" value="1" leadInLength="0/1"  name="cursorScale"/>
          </Parameters>
          <Effects>
           <GenericEffect id="987" name = "CursorBaseEffectName" >
            <Parameters>
            <InterpolatingParam id="988" interp="linr"  time="-9999999/1" value="1" leadInLength="0/1"   name="cursorSize"/>
            <InterpolatingParam id="989" interp="linr"  time="-9999999/1" value="0" leadInLength="0/1"   name="highlightBlurRadius"/>
            <InterpolatingParam id="990" interp="linr"  time="-9999999/1" value="0" leadInLength="0/1"   name="highlightColorBlue"/>
            <InterpolatingParam id="991" interp="linr"  time="-9999999/1" value="255" leadInLength="0/1"   name="highlightColorGreen"/>
            <InterpolatingParam id="992" interp="linr"  time="-9999999/1" value="255" leadInLength="0/1"   name="highlightColorRed"/>
            <InterpolatingParam id="993" interp="linr"  time="-9999999/1" value="5" leadInLength="0/1"   name="highlightFeatherSize"/>
            <InterpolatingParam id="994" interp="linr"  time="-9999999/1" value="2" leadInLength="0/1"   name="highlightMagnification"/>
            <InterpolatingParam id="995" interp="linr"  time="-9999999/1" value="1" leadInLength="0/1"   name="highlightOpacity"/>
            <InterpolatingParam id="996" interp="linr"  time="-9999999/1" value="45" leadInLength="0/1"   name="highlightSize"/>
            <Parameter id="997"   name="highlightType">
             <Keyframes>
             <Keyframe id="998"  time="-9999999/1" value="0" leadInLength="0/1"  />
             </Keyframes>
            </Parameter>
            <InterpolatingParam id="999" interp="linr"  time="-9999999/1" value="0" leadInLength="0/1"   name="leftClickColorBlue"/>
            <InterpolatingParam id="1000" interp="linr"  time="-9999999/1" value="0" leadInLength="0/1"   name="leftClickColorGreen"/>
            <InterpolatingParam id="1001" interp="linr"  time="-9999999/1" value="255" leadInLength="0/1"   name="leftClickColorRed"/>
            <InterpolatingParam id="1002" interp="linr"  time="-9999999/1" value="0.80000000000000004" leadInLength="0/1"   name="leftClickDuration"/>
            <InterpolatingParam id="1003" interp="linr"  time="-9999999/1" value="20" leadInLength="0/1"   name="leftClickSize"/>
            <Parameter id="1004"   name="leftClickSoundFilename">
             <Keyframes>
             <Keyframe id="1005"  time="-9999999/1" value="" leadInLength="0/1"  />
             </Keyframes>
            </Parameter>
            <InterpolatingParam id="1006" interp="linr"  time="-9999999/1" value="1" leadInLength="0/1"   name="leftClickSoundVolume"/>
            <Parameter id="1007"   name="leftClickType">
             <Keyframes>
             <Keyframe id="1008"  time="-9999999/1" value="0" leadInLength="0/1"  />
             </Keyframes>
            </Parameter>
            <InterpolatingParam id="1009" interp="linr"  time="-9999999/1" value="1" leadInLength="0/1"   name="opacity"/>
            <InterpolatingParam id="1010" interp="linr"  time="-9999999/1" value="255" leadInLength="0/1"   name="rightClickColorBlue"/>
            <InterpolatingParam id="1011" interp="linr"  time="-9999999/1" value="0" leadInLength="0/1"   name="rightClickColorGreen"/>
            <InterpolatingParam id="1012" interp="linr"  time="-9999999/1" value="0" leadInLength="0/1"   name="rightClickColorRed"/>
            <InterpolatingParam id="1013" interp="linr"  time="-9999999/1" value="0.80000000000000004" leadInLength="0/1"   name="rightClickDuration"/>
            <InterpolatingParam id="1014" interp="linr"  time="-9999999/1" value="20" leadInLength="0/1"   name="rightClickSize"/>
            <Parameter id="1015"   name="rightClickSoundFilename">
             <Keyframes>
             <Keyframe id="1016"  time="-9999999/1" value="" leadInLength="0/1"  />
             </Keyframes>
            </Parameter>
            <InterpolatingParam id="1017" interp="linr"  time="-9999999/1" value="1" leadInLength="0/1"   name="rightClickSoundVolume"/>
            <Parameter id="1018"   name="rightClickType">
             <Keyframes>
             <Keyframe id="1019"  time="-9999999/1" value="0" leadInLength="0/1"  />
             </Keyframes>
            </Parameter>
            </Parameters>
            <MetaData>
             <entry key="effectIndex" val="0"/>
            </MetaData>
           </GenericEffect>
          </Effects>
          <Attributes>
           <Attribute id="1020" value="" name="ident"/>
          </Attributes>
          <ExtraData>
           <Entry key="ZoomPanBin">
            <ZoomPanBin id="1021"  >
             <ZoomPanKeyframes>
              <ZoomPanKeyframe id="1022" timeRangeEnd="-9999999/1" timeRangeDuration="0/1" interpolaterName="linr"  />
             </ZoomPanKeyframes>
            </ZoomPanBin>
           </Entry>
           <Entry key="CursorEffectBin">
            <CursorEffectBin id="1023"  >
             <CursorEffectKeyframes>
              <CursorEffectKeyframe id="1024" timeRangeEnd="-9999999/1" timeRangeDuration="0/1" interpolaterName=""  />
             </CursorEffectKeyframes>
            </CursorEffectBin>
           </Entry>
          </ExtraData>
         </ScreenVMFile>
         <MetaData>
          <entry key="AutoAppliedSmartFocus" val="False"/>
          <entry key="WinSubProjectDisplayName" val=""/>
         </MetaData>
        </UnifiedMedia>
        <UnifiedMedia id="1025"  >
         <AMFile id="1026" start="32315" duration="1726" scalar="1/1" mediaStart="0/1" mediaDuration="1726/1" trackNumber="1" src="15" channelNumber="0,1" >
          <Parameters>
           <InterpolatingParam id="1027" interp="linr"  time="0/1" value="1" leadInLength="0/1"  name="volume"/>
           <Parameter id="1028"  name="captions"/>
          </Parameters>
          <Attributes>
           <Attribute id="1029" value="" name="ident"/>
           <Attribute id="1030" value="44100" name="sampleRate"/>
           <Attribute id="1031" value="16" name="bitDepth"/>
           <Attribute id="1032" value="1" name="gain"/>
           <Attribute id="1033" value="0" name="mixToMono"/>
          </Attributes>
         </AMFile>
         <ScreenVMFile id="1034" start="32315" duration="1726" scalar="1/1" mediaStart="0/1" mediaDuration="1726/1" trackNumber="0" src="15" >
          <Transformer>
           <VectorParam id="1035"  name="translation">
            <InterpolatingParam id="1036" interp="linr"  time="-9999999/1" value="0" leadInLength="0/1"  />
            <InterpolatingParam id="1037" interp="linr"  time="-9999999/1" value="0" leadInLength="0/1"  />
            <InterpolatingParam id="1038" interp="linr"  time="-9999999/1" value="0" leadInLength="0/1"  />
           </VectorParam>
           <VectorParam id="1039"  name="rotation">
            <InterpolatingParam id="1040" interp="linr"  time="-9999999/1" value="0" leadInLength="0/1"  />
            <InterpolatingParam id="1041" interp="linr"  time="-9999999/1" value="0" leadInLength="0/1"  />
            <InterpolatingParam id="1042" interp="linr"  time="-9999999/1" value="0" leadInLength="0/1"  />
           </VectorParam>
           <VectorParam id="1043"  name="shear">
            <InterpolatingParam id="1044" interp="linr"  time="-9999999/1" value="0" leadInLength="0/1"  />
            <InterpolatingParam id="1045" interp="linr"  time="-9999999/1" value="0" leadInLength="0/1"  />
            <InterpolatingParam id="1046" interp="linr"  time="-9999999/1" value="0" leadInLength="0/1"  />
           </VectorParam>
           <VectorParam id="1047"  name="scale">
            <InterpolatingParam id="1048" interp="linr"  time="-9999999/1" value="0.98901098901098905" leadInLength="0/1"  />
            <InterpolatingParam id="1049" interp="linr"  time="-9999999/1" value="0.98901098901098905" leadInLength="0/1"  />
            <InterpolatingParam id="1050" interp="linr"  time="-9999999/1" value="1" leadInLength="0/1"  />
           </VectorParam>
           <VectorParam id="1051"  name="anchor">
            <InterpolatingParam id="1052" interp="linr"  time="0/1" value="0" leadInLength="0/1"  />
            <InterpolatingParam id="1053" interp="linr"  time="0/1" value="0" leadInLength="0/1"  />
            <InterpolatingParam id="1054" interp="linr"  time="0/1" value="0" leadInLength="0/1"  />
           </VectorParam>
          </Transformer>
          <Parameters>
           <VectorParam id="1055"  name="sourceCrop">
            <InterpolatingParam id="1056" interp="linr"  time="0/1" value="0" leadInLength="0/1"  />
            <InterpolatingParam id="1057" interp="linr"  time="0/1" value="0" leadInLength="0/1"  />
            <InterpolatingParam id="1058" interp="linr"  time="0/1" value="0" leadInLength="0/1"  />
            <InterpolatingParam id="1059" interp="linr"  time="0/1" value="0" leadInLength="0/1"  />
           </VectorParam>
           <VectorParam id="1060"  name="geometryCrop">
            <InterpolatingParam id="1061" interp="linr"  time="-9999999/1" value="0" leadInLength="0/1"  />
            <InterpolatingParam id="1062" interp="linr"  time="-9999999/1" value="0" leadInLength="0/1"  />
            <InterpolatingParam id="1063" interp="linr"  time="-9999999/1" value="0" leadInLength="0/1"  />
            <InterpolatingParam id="1064" interp="linr"  time="-9999999/1" value="0" leadInLength="0/1"  />
           </VectorParam>
           <InterpolatingParam id="1065" interp="linr"  time="-9999999/1" value="1" leadInLength="0/1"  name="opacity"/>
           <InterpolatingParam id="1066" interp="linr"  time="0/1" value="1" leadInLength="0/1"  name="cursorOpacity"/>
           <InterpolatingParam id="1067" interp="linr"  time="0/1" value="1" leadInLength="0/1"  name="cursorScale"/>
          </Parameters>
          <Effects>
           <GenericEffect id="1068" name = "CursorBaseEffectName" >
            <Parameters>
            <InterpolatingParam id="1069" interp="linr"  time="-9999999/1" value="1" leadInLength="0/1"   name="cursorSize"/>
            <InterpolatingParam id="1070" interp="linr"  time="-9999999/1" value="0" leadInLength="0/1"   name="highlightBlurRadius"/>
            <InterpolatingParam id="1071" interp="linr"  time="-9999999/1" value="0" leadInLength="0/1"   name="highlightColorBlue"/>
            <InterpolatingParam id="1072" interp="linr"  time="-9999999/1" value="255" leadInLength="0/1"   name="highlightColorGreen"/>
            <InterpolatingParam id="1073" interp="linr"  time="-9999999/1" value="255" leadInLength="0/1"   name="highlightColorRed"/>
            <InterpolatingParam id="1074" interp="linr"  time="-9999999/1" value="5" leadInLength="0/1"   name="highlightFeatherSize"/>
            <InterpolatingParam id="1075" interp="linr"  time="-9999999/1" value="2" leadInLength="0/1"   name="highlightMagnification"/>
            <InterpolatingParam id="1076" interp="linr"  time="-9999999/1" value="1" leadInLength="0/1"   name="highlightOpacity"/>
            <InterpolatingParam id="1077" interp="linr"  time="-9999999/1" value="45" leadInLength="0/1"   name="highlightSize"/>
            <Parameter id="1078"   name="highlightType">
             <Keyframes>
             <Keyframe id="1079"  time="-9999999/1" value="0" leadInLength="0/1"  />
             </Keyframes>
            </Parameter>
            <InterpolatingParam id="1080" interp="linr"  time="-9999999/1" value="0" leadInLength="0/1"   name="leftClickColorBlue"/>
            <InterpolatingParam id="1081" interp="linr"  time="-9999999/1" value="0" leadInLength="0/1"   name="leftClickColorGreen"/>
            <InterpolatingParam id="1082" interp="linr"  time="-9999999/1" value="255" leadInLength="0/1"   name="leftClickColorRed"/>
            <InterpolatingParam id="1083" interp="linr"  time="-9999999/1" value="0.80000000000000004" leadInLength="0/1"   name="leftClickDuration"/>
            <InterpolatingParam id="1084" interp="linr"  time="-9999999/1" value="20" leadInLength="0/1"   name="leftClickSize"/>
            <Parameter id="1085"   name="leftClickSoundFilename">
             <Keyframes>
             <Keyframe id="1086"  time="-9999999/1" value="" leadInLength="0/1"  />
             </Keyframes>
            </Parameter>
            <InterpolatingParam id="1087" interp="linr"  time="-9999999/1" value="1" leadInLength="0/1"   name="leftClickSoundVolume"/>
            <Parameter id="1088"   name="leftClickType">
             <Keyframes>
             <Keyframe id="1089"  time="-9999999/1" value="0" leadInLength="0/1"  />
             </Keyframes>
            </Parameter>
            <InterpolatingParam id="1090" interp="linr"  time="-9999999/1" value="1" leadInLength="0/1"   name="opacity"/>
            <InterpolatingParam id="1091" interp="linr"  time="-9999999/1" value="255" leadInLength="0/1"   name="rightClickColorBlue"/>
            <InterpolatingParam id="1092" interp="linr"  time="-9999999/1" value="0" leadInLength="0/1"   name="rightClickColorGreen"/>
            <InterpolatingParam id="1093" interp="linr"  time="-9999999/1" value="0" leadInLength="0/1"   name="rightClickColorRed"/>
            <InterpolatingParam id="1094" interp="linr"  time="-9999999/1" value="0.80000000000000004" leadInLength="0/1"   name="rightClickDuration"/>
            <InterpolatingParam id="1095" interp="linr"  time="-9999999/1" value="20" leadInLength="0/1"   name="rightClickSize"/>
            <Parameter id="1096"   name="rightClickSoundFilename">
             <Keyframes>
             <Keyframe id="1097"  time="-9999999/1" value="" leadInLength="0/1"  />
             </Keyframes>
            </Parameter>
            <InterpolatingParam id="1098" interp="linr"  time="-9999999/1" value="1" leadInLength="0/1"   name="rightClickSoundVolume"/>
            <Parameter id="1099"   name="rightClickType">
             <Keyframes>
             <Keyframe id="1100"  time="-9999999/1" value="0" leadInLength="0/1"  />
             </Keyframes>
            </Parameter>
            </Parameters>
            <MetaData>
             <entry key="effectIndex" val="0"/>
            </MetaData>
           </GenericEffect>
          </Effects>
          <Attributes>
           <Attribute id="1101" value="" name="ident"/>
          </Attributes>
          <ExtraData>
           <Entry key="ZoomPanBin">
            <ZoomPanBin id="1102"  >
             <ZoomPanKeyframes>
              <ZoomPanKeyframe id="1103" timeRangeEnd="-9999999/1" timeRangeDuration="0/1" interpolaterName="linr"  />
             </ZoomPanKeyframes>
            </ZoomPanBin>
           </Entry>
           <Entry key="CursorEffectBin">
            <CursorEffectBin id="1104"  >
             <CursorEffectKeyframes>
              <CursorEffectKeyframe id="1105" timeRangeEnd="-9999999/1" timeRangeDuration="0/1" interpolaterName=""  />
             </CursorEffectKeyframes>
            </CursorEffectBin>
           </Entry>
          </ExtraData>
         </ScreenVMFile>
         <MetaData>
          <entry key="AutoAppliedSmartFocus" val="False"/>
          <entry key="WinSubProjectDisplayName" val=""/>
         </MetaData>
        </UnifiedMedia>
        <UnifiedMedia id="1106"  >
         <AMFile id="1107" start="34041" duration="2401" scalar="1/1" mediaStart="0/1" mediaDuration="2401/1" trackNumber="1" src="16" channelNumber="0,1" >
          <Parameters>
           <InterpolatingParam id="1108" interp="linr"  time="0/1" value="1" leadInLength="0/1"  name="volume"/>
           <Parameter id="1109"  name="captions"/>
          </Parameters>
          <Attributes>
           <Attribute id="1110" value="" name="ident"/>
           <Attribute id="1111" value="44100" name="sampleRate"/>
           <Attribute id="1112" value="16" name="bitDepth"/>
           <Attribute id="1113" value="1" name="gain"/>
           <Attribute id="1114" value="0" name="mixToMono"/>
          </Attributes>
         </AMFile>
         <ScreenVMFile id="1115" start="34041" duration="2401" scalar="1/1" mediaStart="0/1" mediaDuration="2401/1" trackNumber="0" src="16" >
          <Transformer>
           <VectorParam id="1116"  name="translation">
            <InterpolatingParam id="1117" interp="linr"  time="-9999999/1" value="0" leadInLength="0/1"  />
            <InterpolatingParam id="1118" interp="linr"  time="-9999999/1" value="0" leadInLength="0/1"  />
            <InterpolatingParam id="1119" interp="linr"  time="-9999999/1" value="0" leadInLength="0/1"  />
           </VectorParam>
           <VectorParam id="1120"  name="rotation">
            <InterpolatingParam id="1121" interp="linr"  time="-9999999/1" value="0" leadInLength="0/1"  />
            <InterpolatingParam id="1122" interp="linr"  time="-9999999/1" value="0" leadInLength="0/1"  />
            <InterpolatingParam id="1123" interp="linr"  time="-9999999/1" value="0" leadInLength="0/1"  />
           </VectorParam>
           <VectorParam id="1124"  name="shear">
            <InterpolatingParam id="1125" interp="linr"  time="-9999999/1" value="0" leadInLength="0/1"  />
            <InterpolatingParam id="1126" interp="linr"  time="-9999999/1" value="0" leadInLength="0/1"  />
            <InterpolatingParam id="1127" interp="linr"  time="-9999999/1" value="0" leadInLength="0/1"  />
           </VectorParam>
           <VectorParam id="1128"  name="scale">
            <InterpolatingParam id="1129" interp="linr"  time="-9999999/1" value="0.98901098901098905" leadInLength="0/1"  />
            <InterpolatingParam id="1130" interp="linr"  time="-9999999/1" value="0.98901098901098905" leadInLength="0/1"  />
            <InterpolatingParam id="1131" interp="linr"  time="-9999999/1" value="1" leadInLength="0/1"  />
           </VectorParam>
           <VectorParam id="1132"  name="anchor">
            <InterpolatingParam id="1133" interp="linr"  time="0/1" value="0" leadInLength="0/1"  />
            <InterpolatingParam id="1134" interp="linr"  time="0/1" value="0" leadInLength="0/1"  />
            <InterpolatingParam id="1135" interp="linr"  time="0/1" value="0" leadInLength="0/1"  />
           </VectorParam>
          </Transformer>
          <Parameters>
           <VectorParam id="1136"  name="sourceCrop">
            <InterpolatingParam id="1137" interp="linr"  time="0/1" value="0" leadInLength="0/1"  />
            <InterpolatingParam id="1138" interp="linr"  time="0/1" value="0" leadInLength="0/1"  />
            <InterpolatingParam id="1139" interp="linr"  time="0/1" value="0" leadInLength="0/1"  />
            <InterpolatingParam id="1140" interp="linr"  time="0/1" value="0" leadInLength="0/1"  />
           </VectorParam>
           <VectorParam id="1141"  name="geometryCrop">
            <InterpolatingParam id="1142" interp="linr"  time="-9999999/1" value="0" leadInLength="0/1"  />
            <InterpolatingParam id="1143" interp="linr"  time="-9999999/1" value="0" leadInLength="0/1"  />
            <InterpolatingParam id="1144" interp="linr"  time="-9999999/1" value="0" leadInLength="0/1"  />
            <InterpolatingParam id="1145" interp="linr"  time="-9999999/1" value="0" leadInLength="0/1"  />
           </VectorParam>
           <InterpolatingParam id="1146" interp="linr"  time="-9999999/1" value="1" leadInLength="0/1"  name="opacity"/>
           <InterpolatingParam id="1147" interp="linr"  time="0/1" value="1" leadInLength="0/1"  name="cursorOpacity"/>
           <InterpolatingParam id="1148" interp="linr"  time="0/1" value="1" leadInLength="0/1"  name="cursorScale"/>
          </Parameters>
          <Effects>
           <GenericEffect id="1149" name = "CursorBaseEffectName" >
            <Parameters>
            <InterpolatingParam id="1150" interp="linr"  time="-9999999/1" value="1" leadInLength="0/1"   name="cursorSize"/>
            <InterpolatingParam id="1151" interp="linr"  time="-9999999/1" value="0" leadInLength="0/1"   name="highlightBlurRadius"/>
            <InterpolatingParam id="1152" interp="linr"  time="-9999999/1" value="0" leadInLength="0/1"   name="highlightColorBlue"/>
            <InterpolatingParam id="1153" interp="linr"  time="-9999999/1" value="255" leadInLength="0/1"   name="highlightColorGreen"/>
            <InterpolatingParam id="1154" interp="linr"  time="-9999999/1" value="255" leadInLength="0/1"   name="highlightColorRed"/>
            <InterpolatingParam id="1155" interp="linr"  time="-9999999/1" value="5" leadInLength="0/1"   name="highlightFeatherSize"/>
            <InterpolatingParam id="1156" interp="linr"  time="-9999999/1" value="2" leadInLength="0/1"   name="highlightMagnification"/>
            <InterpolatingParam id="1157" interp="linr"  time="-9999999/1" value="1" leadInLength="0/1"   name="highlightOpacity"/>
            <InterpolatingParam id="1158" interp="linr"  time="-9999999/1" value="45" leadInLength="0/1"   name="highlightSize"/>
            <Parameter id="1159"   name="highlightType">
             <Keyframes>
             <Keyframe id="1160"  time="-9999999/1" value="0" leadInLength="0/1"  />
             </Keyframes>
            </Parameter>
            <InterpolatingParam id="1161" interp="linr"  time="-9999999/1" value="0" leadInLength="0/1"   name="leftClickColorBlue"/>
            <InterpolatingParam id="1162" interp="linr"  time="-9999999/1" value="0" leadInLength="0/1"   name="leftClickColorGreen"/>
            <InterpolatingParam id="1163" interp="linr"  time="-9999999/1" value="255" leadInLength="0/1"   name="leftClickColorRed"/>
            <InterpolatingParam id="1164" interp="linr"  time="-9999999/1" value="0.80000000000000004" leadInLength="0/1"   name="leftClickDuration"/>
            <InterpolatingParam id="1165" interp="linr"  time="-9999999/1" value="20" leadInLength="0/1"   name="leftClickSize"/>
            <Parameter id="1166"   name="leftClickSoundFilename">
             <Keyframes>
             <Keyframe id="1167"  time="-9999999/1" value="" leadInLength="0/1"  />
             </Keyframes>
            </Parameter>
            <InterpolatingParam id="1168" interp="linr"  time="-9999999/1" value="1" leadInLength="0/1"   name="leftClickSoundVolume"/>
            <Parameter id="1169"   name="leftClickType">
             <Keyframes>
             <Keyframe id="1170"  time="-9999999/1" value="0" leadInLength="0/1"  />
             </Keyframes>
            </Parameter>
            <InterpolatingParam id="1171" interp="linr"  time="-9999999/1" value="1" leadInLength="0/1"   name="opacity"/>
            <InterpolatingParam id="1172" interp="linr"  time="-9999999/1" value="255" leadInLength="0/1"   name="rightClickColorBlue"/>
            <InterpolatingParam id="1173" interp="linr"  time="-9999999/1" value="0" leadInLength="0/1"   name="rightClickColorGreen"/>
            <InterpolatingParam id="1174" interp="linr"  time="-9999999/1" value="0" leadInLength="0/1"   name="rightClickColorRed"/>
            <InterpolatingParam id="1175" interp="linr"  time="-9999999/1" value="0.80000000000000004" leadInLength="0/1"   name="rightClickDuration"/>
            <InterpolatingParam id="1176" interp="linr"  time="-9999999/1" value="20" leadInLength="0/1"   name="rightClickSize"/>
            <Parameter id="1177"   name="rightClickSoundFilename">
             <Keyframes>
             <Keyframe id="1178"  time="-9999999/1" value="" leadInLength="0/1"  />
             </Keyframes>
            </Parameter>
            <InterpolatingParam id="1179" interp="linr"  time="-9999999/1" value="1" leadInLength="0/1"   name="rightClickSoundVolume"/>
            <Parameter id="1180"   name="rightClickType">
             <Keyframes>
             <Keyframe id="1181"  time="-9999999/1" value="0" leadInLength="0/1"  />
             </Keyframes>
            </Parameter>
            </Parameters>
            <MetaData>
             <entry key="effectIndex" val="0"/>
            </MetaData>
           </GenericEffect>
          </Effects>
          <Attributes>
           <Attribute id="1182" value="" name="ident"/>
          </Attributes>
          <ExtraData>
           <Entry key="ZoomPanBin">
            <ZoomPanBin id="1183"  >
             <ZoomPanKeyframes>
              <ZoomPanKeyframe id="1184" timeRangeEnd="-9999999/1" timeRangeDuration="0/1" interpolaterName="linr"  />
             </ZoomPanKeyframes>
            </ZoomPanBin>
           </Entry>
           <Entry key="CursorEffectBin">
            <CursorEffectBin id="1185"  >
             <CursorEffectKeyframes>
              <CursorEffectKeyframe id="1186" timeRangeEnd="-9999999/1" timeRangeDuration="0/1" interpolaterName=""  />
             </CursorEffectKeyframes>
            </CursorEffectBin>
           </Entry>
          </ExtraData>
         </ScreenVMFile>
         <MetaData>
          <entry key="AutoAppliedSmartFocus" val="False"/>
          <entry key="WinSubProjectDisplayName" val=""/>
         </MetaData>
        </UnifiedMedia>
       </Medias>
      </GenericTrack>
      <GenericTrack id="1187"  >
       <Attributes>
        <Attribute id="1188" value="" name="ident"/>
        <Attribute id="1189" value="0" name="audioMuted"/>
        <Attribute id="1190" value="0" name="videoHidden"/>
       </Attributes>
       <MetaData>
        <entry key="IsLocked" val="False"/>
        <entry key="WinTrackHeight" val="62"/>
       </MetaData>
       <Medias>
       </Medias>
      </GenericTrack>
      <GenericTrack id="1191"  >
       <Attributes>
        <Attribute id="1192" value="" name="ident"/>
        <Attribute id="1193" value="0" name="audioMuted"/>
        <Attribute id="1194" value="0" name="videoHidden"/>
       </Attributes>
       <MetaData>
        <entry key="IsLocked" val="False"/>
        <entry key="WinTrackHeight" val="62"/>
       </MetaData>
       <Medias>
       </Medias>
      </GenericTrack>
     </Tracks>
    </GenericMixer>
   <CaptionAttributes id="1195"  >
    <Attribute id="1196" value="1" name="captionsEnabled"/>
    <Attribute id="1197" value="Arial" name="captionsFontName"/>
    <Attribute id="1198" value="28" name="captionsFontSize"/>
    <Attribute id="1199" value="(0,0,0,255)" name="captionsBackgroundColor"/>
    <Attribute id="1200" value="(255,255,255,255)" name="captionsForegroundColor"/>
    <Attribute id="1201" value="en" name="lang"/>
    <Attribute id="1202" value="0" name="captionsAlignment"/>
    <Attribute id="1203" value="1" name="captionsDefaultFontSize"/>
    <Attribute id="1204" value="0.5" name="captionsOpacity"/>
    <Attribute id="1205" value="1" name="captionsBackgroundEnabled"/>
    <Attribute id="1206" value="1" name="captionsBackgroundOnlyAroundText"/>
   </CaptionAttributes>
   <Parameters>
    <VectorParam id="1207"  name="eyePosition">
     <InterpolatingParam id="1208" interp="linr"  time="0/1" value="0" leadInLength="0/1"  />
     <InterpolatingParam id="1209" interp="linr"  time="0/1" value="0" leadInLength="0/1"  />
     <InterpolatingParam id="1210" interp="linr"  time="0/1" value="3000" leadInLength="0/1"  />
    </VectorParam>
    <VectorParam id="1211"  name="eyeLookAtPosition">
     <InterpolatingParam id="1212" interp="linr"  time="0/1" value="0" leadInLength="0/1"  />
     <InterpolatingParam id="1213" interp="linr"  time="0/1" value="0" leadInLength="0/1"  />
     <InterpolatingParam id="1214" interp="linr"  time="0/1" value="0" leadInLength="0/1"  />
    </VectorParam>
    <VectorParam id="1215"  name="eyeUpVector">
     <InterpolatingParam id="1216" interp="linr"  time="0/1" value="0" leadInLength="0/1"  />
     <InterpolatingParam id="1217" interp="linr"  time="0/1" value="1" leadInLength="0/1"  />
     <InterpolatingParam id="1218" interp="linr"  time="0/1" value="0" leadInLength="0/1"  />
    </VectorParam>
    <InterpolatingParam id="1219" interp="linr"  time="0/1" value="0.23885785" leadInLength="0/1"  name="fov"/>
    <InterpolatingParam id="1220" interp="linr"  time="0/1" value="1.5" leadInLength="0/1"  name="nearClipDistance"/>
    <InterpolatingParam id="1221" interp="linr"  time="0/1" value="6000" leadInLength="0/1"  name="farClipDistance"/>
   </Parameters>
  </Timeline>
 </Project>
</GoProject>
</CSMLData>

</Project_Data>
